<?xml version="1.0" encoding="UTF-8" standalone="no"?>
<!-- Generator: Adobe Illustrator 23.1.0, SVG Export Plug-In . SVG Version: 6.00 Build 0)  -->

<svg
   xmlns:dc="http://purl.org/dc/elements/1.1/"
   xmlns:cc="http://creativecommons.org/ns#"
   xmlns:rdf="http://www.w3.org/1999/02/22-rdf-syntax-ns#"
   xmlns:svg="http://www.w3.org/2000/svg"
   xmlns="http://www.w3.org/2000/svg"
   xmlns:sodipodi="http://sodipodi.sourceforge.net/DTD/sodipodi-0.dtd"
   xmlns:inkscape="http://www.inkscape.org/namespaces/inkscape"
   version="1.1"
   id="Capa_1"
   x="0px"
   y="0px"
   viewBox="0 0 1199.85 1199.85"
   style="enable-background:new 0 0 1199.85 1199.85;"
   xml:space="preserve"
   sodipodi:docname="powerlifting_navarra-black.svg"
   inkscape:version="0.92.4 (70224e8, 2019-12-23)"><metadata
   id="metadata169"><rdf:RDF><cc:Work
       rdf:about=""><dc:format>image/svg+xml</dc:format><dc:type
         rdf:resource="http://purl.org/dc/dcmitype/StillImage" /><dc:title></dc:title></cc:Work></rdf:RDF></metadata><defs
   id="defs167" /><sodipodi:namedview
   pagecolor="#ffffff"
   bordercolor="#666666"
   borderopacity="1"
   objecttolerance="10"
   gridtolerance="10"
   guidetolerance="10"
   inkscape:pageopacity="0"
   inkscape:pageshadow="2"
   inkscape:window-width="1920"
   inkscape:window-height="1025"
   id="namedview165"
   showgrid="false"
   inkscape:zoom="0.49739395"
   inkscape:cx="87.003216"
   inkscape:cy="583.21049"
   inkscape:window-x="0"
   inkscape:window-y="27"
   inkscape:window-maximized="1"
   inkscape:current-layer="Capa_1" />
<style
   type="text/css"
   id="style10">
	.st0{fill-rule:evenodd;clip-rule:evenodd;fill:none;}
</style>
<path
   class="st0"
   d="M641.92,88.99c-10.19,0.3-20.6-0.54-27-4c-0.33-1-0.67-2-1-3c1-1.67,2-3.33,3-5c19.69-4.01,57.87-0.38,70.99,8  c0,0.33,0,0.67,0,1c0,1.33,0,2.67,0,4c-1,1-2,2-3,3c-8.66-0.67-17.33-1.33-26-2c-2,15.33-4,30.66-6,45.99c7.66,1.33,15.33,2.67,23,4  c1.7,4.96,1.34,5.54-1,10c-18.24,0.35-48.51,0.11-61.99-7c0.22-4.51,0.71-5.39,2-8c7.66,0,15.33,0,23,0  C639.25,120.32,640.59,104.65,641.92,88.99z"
   id="path12"
   style="stroke-width:0.3;stroke-miterlimit:4;stroke-dasharray:none;stroke:none;stroke-opacity:1" />
<path
   class="st0"
   d="M547.93,136.98c11-0.67,22-1.33,33-2c0.33-6,0.67-12,1-18c1-0.33,2-0.67,3-1c3,0,6,0,9,0c0.33,1,0.67,2,1,3  c0.33,9.33,0.67,18.67,1,28c-39.41-0.13-71.36,9.36-97.99,10c-11.44-14.07-29.82-19.24-49.99-14c1.67,4.67,3.33,9.33,5,14  c4.53-1.32,9.53-3.65,14-2c1.33,0.67,2.67,1.33,4,2c-0.22,4.51-0.71,5.39-2,8c-11.91,3.63-25.94,11.94-39,10  c-0.67-2.33-1.33-4.67-2-7c3.71-2.65,5.7-4.48,11-6c-5.67-14.33-11.33-28.66-17-42.99c-7.96,1.18-12.11,2.62-18-1c0-0.33,0-0.67,0-1  c0.33-1.67,0.67-3.33,1-5c17.64-9.39,75.19-33.67,86.99-5c3.05,10.31-4.15,18.35-11,22c0.33,0.67,0.67,1.33,1,2  c12.7,3.99,21.77,10.57,34,15c2.89-5.6,10.19-6.63,18-7c-2.67-15.33-5.33-30.66-8-45.99c-8.85,1.15-15.5,2.7-22-1  c0.22-4.51,0.71-5.39,2-8c15.99-2.96,44.65-11.11,57.99-3c0,1.33,0,2.67,0,4c-5.02,4.39-12.22,5.05-21,6  C544.6,106.32,546.27,121.65,547.93,136.98z"
   id="path14"
   style="stroke-width:0.3;stroke-miterlimit:4;stroke-dasharray:none;stroke:none;stroke-opacity:1" />
<path
   class="st0"
   d="M710.91,87.99c32.14-0.43,64.05,13.75,88.99,24c-3.67,7.33-7.33,14.67-11,22c-2,0.33-4,0.67-6,1  c-2.33-1.33-4.67-2.67-7-4c1-4.67,2-9.33,3-14c-14-4-28-8-41.99-12c-1.33,5.67-2.67,11.33-4,17c5,1.33,10,2.67,15,4  c1.33-2,2.67-4,4-6c2.67,0.33,5.33,0.67,8,1c1.33,0.67,2.67,1.33,4,2c0.09,9.31-3.31,20.22-9,24c-5.74,2.46-8.6-0.49-12-3  c0.33-2.33,0.67-4.67,1-7c-6.32-0.89-10.43-3.14-16-2c-1.33,5-2.67,10-4,15c7.65,1.4,18.24,3.42,22,9c0.59,4.11,0.92,4.67-3,7  c-9.68,3.43-39.89-7.12-47.99-12c0.22-4.51,0.71-5.39,2-8c4.33,0,8.67,0,13,0c3.67-15,7.33-30,11-44.99c-4.33-1.67-8.67-3.33-13-5  c0-1.67,0-3.33,0-5C708.91,89.99,709.91,88.99,710.91,87.99z"
   id="path16"
   style="stroke-width:0.3;stroke-miterlimit:4;stroke-dasharray:none;stroke:none;stroke-opacity:1" />
<path
   class="st0"
   d="M459.94,105.99c-7.66,2.33-15.33,4.67-23,7c2,6,4,12,6,18c1,0,2,0,3,0c12.4-4.34,20.94-8.14,30-15  c-0.22-4.51-0.71-5.39-2-8C469.28,107.32,464.61,106.65,459.94,105.99z"
   id="path18"
   style="stroke-width:0.3;stroke-miterlimit:4;stroke-dasharray:none;stroke:none;stroke-opacity:1" />
<path
   class="st0"
   d="M807.9,114.99c27.98,12.23,53.29,28.94,79.99,40c-6,8-12,16-18,24c-6.07-0.06-7.56-0.99-11-3  c-0.33-2.33-0.67-4.67-1-7c3.27-3.58,6.74-9.45,7-13c-5.33-2.33-10.67-4.67-16-7c-7.66,13-15.33,26-23,39c0.67,1,1.33,2,2,3  c4.33,2.33,8.67,4.67,13,7c-0.33,2-0.67,4-1,6c-0.67,1-1.33,2-2,3c-6.82-0.04-48.62-21.57-48.99-24c-2.17-14.01,19.49-2.68,23-1  c7.33-14,14.67-28,22-41.99c-5.67-2-11.33-4-17-6c-2.67,4.67-5.33,9.33-8,14c-6.88-0.03-8.45-1.17-12-4  C797.2,131.95,803.45,123.58,807.9,114.99z"
   id="path20"
   style="stroke-width:0.3;stroke-miterlimit:4;stroke-dasharray:none;stroke:none;stroke-opacity:1" />
<path
   class="st0"
   d="M385.95,117.99c1.33,0,2.67,0,4,0c3,7,6,14,9,21c-2.34,4.09-3.58,4.94-8,7c-1.33-0.33-2.67-0.67-4-1  c-4.45-2.24-5.85-5.59-8-10c-11.33,6-22.66,12-34,18c0.67,0.67,1.33,1.33,2,2c2,3.67,4,7.33,6,11c4.33-2.33,8.67-4.67,13-7  c-1.11-2.83-1.82-3.29-1-6c1.67-2,3.33-4,5-6c5.99,0.13,6.71,0.93,10,3c3.66,8.38,10.4,14.87,5,24c-0.67,0.33-1.33,0.67-2,1  c-8.16-0.31-8.6-3.11-13-4c-3.33,2-6.67,4-10,6c3.33,5,6.67,10,10,15c11.33-5.33,22.66-10.67,34-16c-1.67-3.67-3.33-7.33-5-11  c2.18-4.22,5.92-7.89,12-5c4.96,3.08,11.69,17.1,11,22c-15.14,4.61-61.43,34.6-70.99,32c-2.41-1.67-2.55-2.42-4-5  c2.55-4.37,5.4-5.85,9-9c-9-13-18-26-27-39c-0.67,0.67-1.33,1.33-2,2c-7.85,2.09-12.85,5.27-17,11c9.33,17.66,18.67,35.33,28,52.99  c-18.79,12.52-26.96,2.45-46.99-8c3.67,12,7.33,24,11,36c-4,3.33-8,6.67-12,10c-9.78-6.93-48.81-38.36-54.99-32  c-3.58,1.08-5.4,2.34-9,1c-1-0.67-2-1.33-3-2c0-1.33,0-2.67,0-4c8.12-12.43,21.07-20.33,32-30c5.59,0.3,5.84,1.02,9,3  c0,1.33,0,2.67,0,4c-4,4-8,8-12,12c9.33,7,18.67,14,28,21c-3-9.66-6-19.33-9-29c4.33-3.33,8.67-6.67,13-10  c9.33,4.33,18.67,8.67,28,13c-5.67-9.66-11.33-19.33-17-29c-6.09,4.48-10.58,9.52-20,8c0-2.33,0-4.67,0-7  C288.39,158.58,360.36,136.51,385.95,117.99z"
   id="path22"
   style="stroke-width:0.3;stroke-miterlimit:4;stroke-dasharray:none;stroke:none;stroke-opacity:1" />
<path
   class="st0"
   d="M567.93,151.98c41.61-0.68,83.14-0.95,117.99,6c219.69,43.84,417.4,245.34,365.95,536.93  c-4.96,28.11-15.26,67.21-28,96.99c-53.3,124.64-152.98,210.44-284.96,256.97c-30,10.57-55.94,10.99-89.99,17  c-73.19,12.92-165.79-8.85-211.97-27c-176.61-69.38-334.42-251.51-287.96-514.94c4.36-24.74,13.22-59.56,24-86.99  c45.7-116.28,138.99-208.93,254.97-254.97c26.18-10.39,56.22-17.43,82.99-24C529.93,155.98,548.93,153.98,567.93,151.98z"
   id="path24"
   style="stroke-width:0.3;stroke-miterlimit:4;stroke-dasharray:none;stroke:none;stroke-opacity:1" />
<path
   class="st0"
   d="M902.89,169.98c14.42,0.44,58.52,34.8,59.99,46.99c-0.67,1-1.33,2-2,3c-2,0-4,0-6,0c-6.33-5-12.67-10-19-15  c-0.67,0-1.33,0-2,0c-10.33,11.33-20.67,22.67-31,34c5.33,5.33,10.67,10.67,16,16c-0.67,2.33-1.33,4.67-2,7c-1.67,0-3.33,0-5,0  c-8.95-2.46-42.38-29.55-47.99-37c0.67-2.33,1.33-4.67,2-7c1.67,0,3.33,0,5,0c6.67,3.67,13.33,7.33,20,11c10-11.66,20-23.33,30-35  c-0.67-1-1.33-2-2-3c-6-4.67-12-9.33-18-14C901.55,174.65,902.22,172.31,902.89,169.98z"
   id="path26"
   style="stroke-width:0.3;stroke-miterlimit:4;stroke-dasharray:none;stroke:none;stroke-opacity:1" />
<path
   class="st0"
   d="M589.93,186.98c-23.99,3-48,6-71.99,9c-57,8.23-174.54,64.98-201.97,103.99c8.39,7.5,24.74,19.33,28,31  c-6.67,6.33-13.33,12.67-20,19c-0.33,0-0.67,0-1,0c-6.47-10.04-19.23-22.16-29-29c-24.72,20.05-42,52.22-57.99,80.99  c-63.98,115.08-76.97,262.34-14,386.95c12.49,24.71,46.91,96.75,70.99,103.99c4.46-8.33,19.25-24.35,29-27  c6.33,6.67,12.67,13.33,19,20c0,0.33,0,0.67,0,1c-7.6,4.57-28.96,24.51-27,31c13.66,11,27.33,22,40.99,33  c30.68,21.69,66.79,39.31,103.99,53.99c121.11,47.82,261.1,19.44,354.96-36c24.67-14.57,54.49-29.36,70.99-51.99  c-9-8.66-18-17.33-27-26c3.1-9.84,14.11-15.41,20-23c9.66,9.33,19.33,18.67,29,28c1-0.67,2-1.33,3-2  c10.66-13.33,21.33-26.66,32-39.99c21.7-30.69,39.3-66.79,53.99-103.99c46.09-116.7,21.69-252.73-32-347.96  c-15.16-26.89-31.01-58.98-54.99-76.99c-0.67,0-1.33,0-2,0c-8.33,9-16.67,18-25,27c-9.84-3.1-15.41-14.11-23-20  c9.66-9.66,19.33-19.33,29-29c-0.67-1-1.33-2-2-3c-20.72-10.05-38.82-32.33-58.99-44.99C763.29,215.04,688.78,186.81,589.93,186.98z  "
   id="path28"
   style="stroke-width:0.3;stroke-miterlimit:4;stroke-dasharray:none;stroke:none;stroke-opacity:1" />
<path
   class="st0"
   d="M969.88,224.97c2.33,0.33,4.67,0.67,7,1c6.67,6.33,13.33,12.67,20,19c-3.67,21-7.33,42-11,62.99  c0.33,0,0.67,0,1,0c0.67-0.67,1.33-1.33,2-2c9.33-6,18.67-12,28-18c-3.95-5.48-8.06-8.27-9-17c1-1,2-2,3-3c1.67,0.33,3.33,0.67,5,1  c9.62,4.29,30.56,28.83,25,40.99c-8.56-0.39-8.69-2.95-13-7c-12.48,5.01-46.31,32.57-54.99,30c-2-3-4-6-6-9  c4.33-20.66,8.67-41.33,13-61.99c-9.66,7-19.33,14-29,21c2.67,4.33,5.33,8.67,8,13c-0.33,1.67-0.67,3.33-1,5c-2.67,0-5.33,0-8,0  c-9.98-4.75-17.62-17.22-25-25c1-2.67,2-5.33,3-8c0.33,0,0.67,0,1,0c9.38,1.69,9.32,6.96,15,0c10.66-8.66,21.33-17.33,32-26  c-2.67-3.67-5.33-7.33-8-11C968.55,228.97,969.21,226.97,969.88,224.97z"
   id="path30"
   style="stroke-width:0.3;stroke-miterlimit:4;stroke-dasharray:none;stroke:none;stroke-opacity:1" />
<path
   class="st0"
   d="M220.97,242.97c73.04-2.51,33.37,103.07-24,84.99c-32.21-10.15-25.41-55.36-4-71.99  C201.22,249.57,210.46,247.61,220.97,242.97z"
   id="path32"
   style="stroke-width:0.3;stroke-miterlimit:4;stroke-dasharray:none;stroke:none;stroke-opacity:1" />
<path
   class="st0"
   d="M599.92,265.97c-5.33,0-10.67,0-16,0c0-1,0-2,0-3c3.5-8.27,7.25-10.94,16-14  C599.92,254.63,599.92,260.3,599.92,265.97z"
   id="path34"
   style="stroke-width:0.3;stroke-miterlimit:4;stroke-dasharray:none;stroke:none;stroke-opacity:1" />
<path
   class="st0"
   d="M603.92,265.97c-0.33-6.18-0.56-13.71,2-17c7.87,4.87,12.31,6.76,15,17  C615.26,265.97,609.59,265.97,603.92,265.97z"
   id="path36"
   style="stroke-width:0.3;stroke-miterlimit:4;stroke-dasharray:none;stroke:none;stroke-opacity:1" />
<path
   class="st0"
   d="M218.97,257.97c-6.33,3-12.67,6-19,9c-13.39,11.26-15.04,39.76,4,45.99  C243.69,325.97,265.49,256.44,218.97,257.97z"
   id="path38"
   style="stroke-width:0.3;stroke-miterlimit:4;stroke-dasharray:none;stroke:none;stroke-opacity:1" />
<path
   class="st0"
   d="M599.92,269.97c0,5.33,0,10.67,0,16c-1.33,0-2.67,0-4,0c-6.03-4.64-10.68-6.35-12-16  C589.26,269.97,594.59,269.97,599.92,269.97z"
   id="path40"
   style="stroke-width:0.3;stroke-miterlimit:4;stroke-dasharray:none;stroke:none;stroke-opacity:1" />
<path
   class="st0"
   d="M603.92,269.97c5.67,0,11.33,0,17,0c0,0.33,0,0.67,0,1c-3.02,8.26-6.29,14.29-17,15  C603.92,280.63,603.92,275.3,603.92,269.97z"
   id="path42"
   style="stroke-width:0.3;stroke-miterlimit:4;stroke-dasharray:none;stroke:none;stroke-opacity:1" />
<path
   class="st0"
   d="M515.94,289.96c16.13,1,28.62,4.56,39,11c-1.33,1.67-2.67,3.33-4,5c-6.95,3.49-9.43,11.14-15,16  c-35.84-10.03-72.57,16.63-56.99,54.99c7.08,17.43,20.96,16.7,35,27c-13.33,3.67-26.66,7.33-39.99,11  c-34.36-25.31-30.87-86.84,2-110.99C487.72,295.31,500.12,295.98,515.94,289.96z"
   id="path44"
   style="stroke-width:0.3;stroke-miterlimit:4;stroke-dasharray:none;stroke:none;stroke-opacity:1" />
<path
   class="st0"
   d="M616.92,393.95c-9.66,0-19.33,0-29,0c-0.23-15.73-3.65-95.59,2-101.99c7.62-3.34,18.55-1.34,27,0  C616.92,325.96,616.92,359.96,616.92,393.95z"
   id="path46"
   style="stroke-width:0.3;stroke-miterlimit:4;stroke-dasharray:none;stroke:none;stroke-opacity:1" />
<path
   class="st0"
   d="M683.91,289.96c66.56,2.66,100.86,85.63,46.99,124.98c-9.92-3.59-33.86-7.3-39-13  c52.19-2.59,50.73-95.35-24-79.99c-6-7.33-12-14.67-18-22C659.4,297.06,672.95,294.63,683.91,289.96z"
   id="path48"
   style="stroke-width:0.3;stroke-miterlimit:4;stroke-dasharray:none;stroke:none;stroke-opacity:1" />
<path
   class="st0"
   d="M581.93,292.96c0.33,10,0.67,20,1,30c-33.66,17.42-23.26,47.32-7,71.99c-9.56,0.39-28.89,5.44-34,1  c-5.94-5.94-6.98-14.96-9-25C523.79,325.61,556.11,307.95,581.93,292.96z"
   id="path50"
   style="stroke-width:0.3;stroke-miterlimit:4;stroke-dasharray:none;stroke:none;stroke-opacity:1" />
<path
   class="st0"
   d="M621.92,292.96c47.14,17.52,59.01,52.76,40.99,104.99c-11.33-1-22.66-2-34-3c0.33-1,0.67-2,1-3  c26.1-12.22,14.22-60.64-8-67.99C621.92,313.63,621.92,303.29,621.92,292.96z"
   id="path52"
   style="stroke-width:0.3;stroke-miterlimit:4;stroke-dasharray:none;stroke:none;stroke-opacity:1" />
<path
   class="st0"
   d="M822.9,305.96c26.33,25.99,52.66,52,78.99,77.99c-0.67,0.33-1.33,0.67-2,1c-3,3.33-6,6.67-9,10  c-0.67,0-1.33,0-2,0c-12.22-15.96-74.4-67.64-75.99-79.99C816.23,311.96,819.56,308.96,822.9,305.96z"
   id="path54"
   style="stroke-width:0.3;stroke-miterlimit:4;stroke-dasharray:none;stroke:none;stroke-opacity:1" />
<path
   class="st0"
   d="M374.95,307.96c6.24,1.89,8.47,6.45,13,10c-26.33,26.33-52.66,52.66-78.99,78.99c-0.33-0.67-0.67-1.33-1-2  c-3.33-3-6.67-6-10-9C323.62,359.96,349.29,333.96,374.95,307.96z"
   id="path56"
   style="stroke-width:0.3;stroke-miterlimit:4;stroke-dasharray:none;stroke:none;stroke-opacity:1" />
<path
   class="st0"
   d="M412.95,309.96c5.67,4.67,11.33,9.33,17,14c-0.33,1-0.67,2-1,3c-34.99,34.66-69.99,69.33-104.99,103.99  c-5.33-5-10.67-10-16-15C342.95,380.62,377.96,345.29,412.95,309.96z"
   id="path58"
   style="stroke-width:0.3;stroke-miterlimit:4;stroke-dasharray:none;stroke:none;stroke-opacity:1" />
<path
   class="st0"
   d="M792.9,315.96c35.33,34.66,70.66,69.33,105.99,103.99c-2.09,6.99-9.65,13.12-15,17  c-35.33-34.99-70.66-69.99-105.99-104.99c0.33-1,0.67-2,1-3C783.57,324.63,788.24,320.29,792.9,315.96z"
   id="path60"
   style="stroke-width:0.3;stroke-miterlimit:4;stroke-dasharray:none;stroke:none;stroke-opacity:1" />
<path
   class="st0"
   d="M161.98,321.96c7.91,0.97,11.17,3.43,16,7c8.14,26-7.2,38.69-12,57.99c5.41,1.4,8.73,4.35,12,2  c5.35-7.21,7.61-15.79,15-21c1.33,0.33,2.67,0.67,4,1c1,0.67,2,1.33,3,2c-0.94,17.47-16.28,39.68-25,51.99c-2,0-4,0-6,0  c-0.67-1-1.33-2-2-3c-1.66-4.63,0.87-8.9,2-14c-15.66-5.33-31.33-10.67-46.99-16c-1.32,7.06-4.64,10.97-10,14c-1-0.33-2-0.67-3-1  c-1-0.67-2-1.33-3-2C107.4,369.84,137.81,333.12,161.98,321.96z"
   id="path62"
   style="stroke-width:0.3;stroke-miterlimit:4;stroke-dasharray:none;stroke:none;stroke-opacity:1" />
<path
   class="st0"
   d="M448.94,322.96c1,0.67,2,1.33,3,2c-12.12,10.45-2.75,32.85-9,43.99c-6.67,6-13.33,12-20,18  c-26.99,27.66-54,55.33-80.99,82.99c-9.12-2.86-14.02-12.57-21-18C363.62,408.95,406.29,365.95,448.94,322.96z"
   id="path64"
   style="stroke-width:0.3;stroke-miterlimit:4;stroke-dasharray:none;stroke:none;stroke-opacity:1" />
<path
   class="st0"
   d="M1031.87,326.96c26.8,0.07,43.23,17.97,50.99,37c1.33,7,2.67,14,4,21c3.21,5.13,11.5,4.81,8,15  c0,0.67,0,1.33,0,2c-6,1.67-12,3.33-18,5c-5.88-3.45-6.51-7.22-10-13c1.49-4.78,4.91-5.96,6-9c10.56-29.36-45.99-59.5-57.99-26  c-6.72,15.49,10.55,38.47,18,44.99c2.67-1.33,5.33-2.67,8-4c-5.19-6.23-12.28-18.87-8-28c1-0.33,2-0.67,3-1c2.33,1.33,4.67,2.67,7,4  c4.49,11.18,22.65,32.34,18,45.99c-0.67,1-1.33,2-2,3c-7.1-0.88-6.05-4.63-10-6c-11.7-4.07-9.09,9.19-23-1  C1007.13,379.31,973.68,354.13,1031.87,326.96z"
   id="path66"
   style="stroke-width:0.3;stroke-miterlimit:4;stroke-dasharray:none;stroke:none;stroke-opacity:1" />
<path
   class="st0"
   d="M756.91,328.96c43.32,42.66,86.66,85.33,129.98,127.98c-6.33,6.67-12.67,13.33-19,20  c-35.66-35.66-71.33-71.33-106.99-106.99C765,355.22,757.35,338.7,756.91,328.96z"
   id="path68"
   style="stroke-width:0.3;stroke-miterlimit:4;stroke-dasharray:none;stroke:none;stroke-opacity:1" />
<path
   class="st0"
   d="M155.98,338.96c-10.56,8.24-20.68,18.88-24,34c7.71,2.46,16.52,8.74,23,6c4.39-12.53,16.53-25.16,8-39  C160.65,339.62,158.31,339.29,155.98,338.96z"
   id="path70"
   style="stroke-width:0.3;stroke-miterlimit:4;stroke-dasharray:none;stroke:none;stroke-opacity:1" />
<path
   class="st0"
   d="M573.93,400.95c53.21-0.67,96.13,4.44,135.98,15c-2.33,9-4.67,18-7,27c-35.36-6.34-77.79-21.23-124.98-14  c-26.34,4.04-51.87,10.93-75.99,13c0-0.67,0-1.33,0-2c-2.33-8.33-4.67-16.67-7-25c17-3.67,34-7.33,50.99-11  C555.26,402.95,564.6,401.95,573.93,400.95z"
   id="path72"
   style="stroke-width:0.3;stroke-miterlimit:4;stroke-dasharray:none;stroke:none;stroke-opacity:1" />
<path
   class="st0"
   d="M420.95,408.95c12,12,24,24,36,36c-10.71-0.35-23.64-0.83-30,3c0,2.67,0,5.33,0,8  C393.7,432.28,401.77,433.13,420.95,408.95z"
   id="path74"
   style="stroke-width:0.3;stroke-miterlimit:4;stroke-dasharray:none;stroke:none;stroke-opacity:1" />
<path
   class="st0"
   d="M777.9,408.95c8.34,2.55,17.23,13.48,22,20c-7.66,7.66-15.33,15.33-23,23c-0.75-4.45-1.25-4.2-3-7  c-10.33,0-20.67,0-31,0C754.57,432.95,766.24,420.95,777.9,408.95z"
   id="path76"
   style="stroke-width:0.3;stroke-miterlimit:4;stroke-dasharray:none;stroke:none;stroke-opacity:1" />
<path
   class="st0"
   d="M432.95,449.94c112.97,0.33,225.98,0.67,338.96,1c0,85.31,0,170.65,0,255.97c0,41.24,5.22,82.83-20,98.99  c-17.02,10.91-46.94,10.25-68.99,15c-26.66,5.33-53.33,10.67-79.99,16c-28.99-5.67-58-11.33-86.99-17  c-28.02-6.14-61.58-5.38-75.99-25c-13.09-17.81-8-61.11-8-90.99C432.28,619.26,432.61,534.59,432.95,449.94z"
   id="path78"
   style="stroke-width:0.3;stroke-miterlimit:4;stroke-dasharray:none;stroke:none;stroke-opacity:1" />
<path
   class="st0"
   d="M474.94,463.94c-31.06,12.71-45.09,52.37-6,63.99c0,23.33,0,46.66,0,69.99c-33.44,6.27-25.39,52.28,0,61.99  c-0.33,23.66-0.67,47.33-1,70.99c-21.08,3.96-30.17,38.64-13,53.99c17.93,16.02,43.2,7.16,52.99-10c20.33,3.67,40.66,7.33,60.99,11  c1.52,40.96,64.36,41.72,64.99,0c20.33-3.67,40.66-7.33,60.99-11c8.49,17.02,36.42,26.62,52.99,10c18.74-18.79,5.66-47.48-14-54.99  c0.33-23.66,0.67-47.33,1-70.99c29.7-5.56,27.48-55.57-1-60.99c0-23.33,0-46.66,0-69.99c23.82-6.74,31.13-42.85,10-57.99  c-18.43-13.21-46.6-2.08-49.99,18c-20.66-0.33-41.33-0.67-61.99-1c-6.32-34.12-52.45-23.98-61.99,1c-20.33,0-40.66,0-60.99,0  C506.34,472.89,492.68,463.91,474.94,463.94z"
   id="path80"
   style="stroke-width:0.3;stroke-miterlimit:4;stroke-dasharray:none;stroke:none;stroke-opacity:1" />
<path
   class="st0"
   d="M475.94,480.94c3.33,0.67,6.67,1.33,10,2c2,2.67,4,5.33,6,8c4.41,13.57-4.2,21.74-18,21  c-4.74-2.27-7.77-4.15-10-9c-0.33-2.67-0.67-5.33-1-8C464.23,485.35,468.94,484.62,475.94,480.94z"
   id="path82"
   style="stroke-width:0.3;stroke-miterlimit:4;stroke-dasharray:none;stroke:none;stroke-opacity:1" />
<path
   class="st0"
   d="M598.93,480.94c8.32,0.29,13.31,3.05,16,9c6.23,10.17-2.34,17.45-8,22c-14.48,0.82-21.18-4.31-21-18  c2-3.33,4-6.67,6-10C594.26,482.94,596.59,481.94,598.93,480.94z"
   id="path84"
   style="stroke-width:0.3;stroke-miterlimit:4;stroke-dasharray:none;stroke:none;stroke-opacity:1" />
<path
   class="st0"
   d="M722.91,480.94c4.33,1.33,8.67,2.67,13,4c7.47,12.51,4.95,27.96-15,27c-7.69-3.57-11.34-7.18-11-19  C713.35,486,716.25,484.66,722.91,480.94z"
   id="path86"
   style="stroke-width:0.3;stroke-miterlimit:4;stroke-dasharray:none;stroke:none;stroke-opacity:1" />
<path
   class="st0"
   d="M508.94,505.94c20.66,0,41.33,0,61.99,0c2.25,11.71,10.83,19.16,22,22c0,22.33,0,44.66,0,66.99  c-2.67,1-5.33,2-8,3c-26.33-27.99-52.66-56-78.99-83.99C506.94,511.27,507.94,508.6,508.94,505.94z"
   id="path88"
   style="stroke-width:0.3;stroke-miterlimit:4;stroke-dasharray:none;stroke:none;stroke-opacity:1" />
<path
   class="st0"
   d="M632.92,505.94c20.33,0,40.66,0,60.99,0c0.67,2.67,1.33,5.33,2,8c-26.33,27.99-52.66,56-78.99,83.99  c-2.33-1-4.67-2-7-3c0-22.33,0-44.66,0-66.99C622.39,524.76,628.49,517.16,632.92,505.94z"
   id="path90"
   style="stroke-width:0.3;stroke-miterlimit:4;stroke-dasharray:none;stroke:none;stroke-opacity:1" />
<path
   class="st0"
   d="M491.94,525.93c26.66,27.99,53.33,56,79.99,83.99c-1.33,3.33-2.67,6.67-4,10c-19.66,0-39.33,0-58.99,0  c-2.57-12.95-11.78-18.63-23-23C485.49,577.67,480.43,534.5,491.94,525.93z"
   id="path92"
   style="stroke-width:0.3;stroke-miterlimit:4;stroke-dasharray:none;stroke:none;stroke-opacity:1" />
<path
   class="st0"
   d="M707.91,525.93c2.67,0.67,5.33,1.33,8,2c0,23.33,0,46.66,0,69.99c-14.87,2.98-15.74,12.92-24,22  c-19.33,0-38.66,0-57.99,0c-1.33-3.33-2.67-6.67-4-10C655.92,581.93,681.92,553.93,707.91,525.93z"
   id="path94"
   style="stroke-width:0.3;stroke-miterlimit:4;stroke-dasharray:none;stroke:none;stroke-opacity:1" />
<path
   class="st0"
   d="M474.94,612.92c3.67,0.67,7.33,1.33,11,2c2,2.67,4,5.33,6,8c4.41,13.57-4.2,21.74-18,21  c-5.08-2.58-7.16-5.47-11-9c0-2.67,0-5.33,0-8C464.19,617.75,468.68,616.82,474.94,612.92z"
   id="path96"
   style="stroke-width:0.3;stroke-miterlimit:4;stroke-dasharray:none;stroke:none;stroke-opacity:1" />
<path
   class="st0"
   d="M595.93,612.92c11.24-0.55,16.74,1.67,20,9c4.31,7.73-0.2,14.83-4,20c-4.85,1.53-6.96,2.82-14,3  c-3-1.67-6-3.33-9-5c-1.33-4.33-2.67-8.67-4-13C587.82,619.58,590.44,617.39,595.93,612.92z"
   id="path98"
   style="stroke-width:0.3;stroke-miterlimit:4;stroke-dasharray:none;stroke:none;stroke-opacity:1" />
<path
   class="st0"
   d="M722.91,612.92c7.2,0.23,11.4,2.16,14,7c11.19,10.59-1.42,24.6-16,24c-7.69-3.57-11.34-7.18-11-19  C713.35,617.98,716.25,616.65,722.91,612.92z"
   id="path100"
   style="stroke-width:0.3;stroke-miterlimit:4;stroke-dasharray:none;stroke:none;stroke-opacity:1" />
<path
   class="st0"
   d="M600.92,614.92c-4.33,4.67-8.67,9.33-13,14c4.33,4.67,8.67,9.33,13,14c4.67-4.67,9.33-9.33,14-14  C610.26,624.26,605.59,619.59,600.92,614.92z"
   id="path102"
   style="stroke-width:0.3;stroke-miterlimit:4;stroke-dasharray:none;stroke:none;stroke-opacity:1" />
<path
   class="st0"
   d="M508.94,637.92c20,0,40,0,59.99,0c1,2.67,2,5.33,3,8c-26.66,28.66-53.33,57.33-79.99,85.99c-1-0.33-2-0.67-3-1  c-1-1-2-2-3-3c0-22.33,0-44.66,0-66.99C496.68,656.35,506.35,650.59,508.94,637.92z"
   id="path104"
   style="stroke-width:0.3;stroke-miterlimit:4;stroke-dasharray:none;stroke:none;stroke-opacity:1" />
<path
   class="st0"
   d="M633.92,637.92c20,0,40,0,59.99,0c3.15,14.83,13.84,15.65,23,24c0,22.33,0,44.66,0,66.99c-2.67,1-5.33,2-8,3  c-26.33-28.33-52.66-56.66-78.99-84.99C631.25,643.92,632.59,640.92,633.92,637.92z"
   id="path106"
   style="stroke-width:0.3;stroke-miterlimit:4;stroke-dasharray:none;stroke:none;stroke-opacity:1" />
<path
   class="st0"
   d="M584.93,657.92c2.67,1,5.33,2,8,3c-0.33,31.33-0.67,62.66-1,93.99c-8.77,1.68-14.28,7.29-18,14  c-21.33-4-42.66-8-63.99-12c-1.33-5-2.67-10-4-15C532.26,713.91,558.6,685.91,584.93,657.92z"
   id="path108"
   style="stroke-width:0.3;stroke-miterlimit:4;stroke-dasharray:none;stroke:none;stroke-opacity:1" />
<path
   class="st0"
   d="M613.92,658.92c1,0,2,0,3,0c26.66,28.33,53.33,56.66,79.99,84.99c-1.71,4.09-3.36,10.57-7,13  c-20.33,4-40.66,8-60.99,12c-3.53-8.23-10.57-11.67-19-15c0-30.99,0-62,0-92.99C611.26,660.25,612.59,659.58,613.92,658.92z"
   id="path110"
   style="stroke-width:0.3;stroke-miterlimit:4;stroke-dasharray:none;stroke:none;stroke-opacity:1" />
<path
   class="st0"
   d="M330.96,740.91c11.36,4.61,18.5,18.07,27,26c34.33,33.66,68.66,67.33,102.99,100.99  c-2.86,9.12-12.57,14.02-18,21c-42.99-42.99-85.99-85.99-128.98-128.98c1.67-1.67,3.33-3.33,5-5  C322.96,750.24,326.96,745.57,330.96,740.91z"
   id="path112"
   style="stroke-width:0.3;stroke-miterlimit:4;stroke-dasharray:none;stroke:none;stroke-opacity:1" />
<path
   class="st0"
   d="M473.94,745.91c8.4-0.05,11.18,1.95,16,5c1,1.67,2,3.33,3,5c0.32,9.7-1.43,12.88-5,18c-1.67,0.67-3.33,1.33-5,2  c-8.34,2.49-13.1-1.38-18-5c-3.15-9.69-2.31-14.45,3-22C469.94,747.91,471.94,746.91,473.94,745.91z"
   id="path114"
   style="stroke-width:0.3;stroke-miterlimit:4;stroke-dasharray:none;stroke:none;stroke-opacity:1" />
<path
   class="st0"
   d="M720.91,745.91c9.38-0.08,11.9,2.35,17,6c1,4,2,8,3,12c-2.98,4.88-3.57,8.41-9,11c-10.02,6.13-17.47-2.37-22-8  c0.33-3.67,0.67-7.33,1-11C713.3,750.09,716.41,749.36,720.91,745.91z"
   id="path116"
   style="stroke-width:0.3;stroke-miterlimit:4;stroke-dasharray:none;stroke:none;stroke-opacity:1" />
<path
   class="st0"
   d="M860.89,747.91c7.44,3.02,15.69,12.62,20,19c-42.66,42.99-85.33,85.99-127.98,128.98  c-6.67-6.33-13.33-12.67-20-19C775.57,833.9,818.24,790.9,860.89,747.91z"
   id="path118"
   style="stroke-width:0.3;stroke-miterlimit:4;stroke-dasharray:none;stroke:none;stroke-opacity:1" />
<path
   class="st0"
   d="M425.95,761.9c4.53,12.3,3.3,24.47,8,34c-4.33,4.33-8.67,8.67-13,13c-7-6.67-14-13.33-21-20  C408.61,779.9,417.28,770.9,425.95,761.9z"
   id="path120"
   style="stroke-width:0.3;stroke-miterlimit:4;stroke-dasharray:none;stroke:none;stroke-opacity:1" />
<path
   class="st0"
   d="M776.9,763.9c8,8,16,16,24,24c0,0.67,0,1.33,0,2c-6.67,6.33-13.33,12.67-20,19c-4-4-8-8-12-12  C774.4,787.87,777.07,779.29,776.9,763.9z"
   id="path122"
   style="stroke-width:0.3;stroke-miterlimit:4;stroke-dasharray:none;stroke:none;stroke-opacity:1" />
<path
   class="st0"
   d="M595.93,770.9c3.67,0.33,7.33,0.67,11,1c4.97,1.92,7.03,4.08,9,9c1.46,5.06,0.27,9.45-1,14  C594.57,811.45,576.21,786.95,595.93,770.9z"
   id="path124"
   style="stroke-width:0.3;stroke-miterlimit:4;stroke-dasharray:none;stroke:none;stroke-opacity:1" />
<path
   class="st0"
   d="M314.96,779.9c35.66,35.33,71.33,70.66,106.99,105.99c-5,5.33-10,10.67-15,16  c-35.33-35.33-70.66-70.66-105.99-105.99c0.67-0.67,1.33-1.33,2-2C306.96,789.23,310.96,784.57,314.96,779.9z"
   id="path126"
   style="stroke-width:0.3;stroke-miterlimit:4;stroke-dasharray:none;stroke:none;stroke-opacity:1" />
<path
   class="st0"
   d="M877.89,786.9c5.82,3.79,12.26,10.11,16,16c0,0.33,0,0.67,0,1c-10.27,4.94-99.03,93.7-103.99,103.99  c-4.23-1.32-17.54-11.17-17-16C807.9,856.9,842.9,821.89,877.89,786.9z"
   id="path128"
   style="stroke-width:0.3;stroke-miterlimit:4;stroke-dasharray:none;stroke:none;stroke-opacity:1" />
<path
   class="st0"
   d="M891.89,820.9c4.92,2.88,9.13,7.03,12,12c-25.99,25.99-52,52-77.99,77.99c-0.33-0.67-0.67-1.33-1-2  c-4.59-2.28-8.34-5.71-10-11C840.56,872.23,866.23,846.56,891.89,820.9z"
   id="path130"
   style="stroke-width:0.3;stroke-miterlimit:4;stroke-dasharray:none;stroke:none;stroke-opacity:1" />
<path
   class="st0"
   d="M308.96,821.9c26.33,26.33,52.66,52.66,78.99,78.99c-0.67,0.33-1.33,0.67-2,1c-3,3.33-6,6.67-9,10  c-25.99-25.99-52-52-77.99-77.99c0-0.67,0-1.33,0-2C302.3,828.56,305.63,825.23,308.96,821.9z"
   id="path132"
   style="stroke-width:0.3;stroke-miterlimit:4;stroke-dasharray:none;stroke:none;stroke-opacity:1" />
<path
   class="st0"
   d="M496.94,897.89c22.77-1.22,36.85,9.16,31,30c-10.53,7.71-22.56,15.14-38,18c0.33,0.67,0.67,1.33,1,2  c10.33,2,20.67,4,31,6c0.33,0.67,0.67,1.33,1,2c-0.33,3-0.67,6-1,9c-17.66-4.33-35.33-8.67-52.99-13c1.33-4,2.67-8,4-12  c16.24-1.6,36.72-10.42,45.99-20c0-1.33,0-2.67,0-4c-2.33-2-4.67-4-7-6c-2.92-1.79-8.17-2.8-12-1c-3.33,2.33-6.67,4.67-10,7  c-2-1-4-2-6-3c0.5-7.57,2.71-7.77,6-12C492.27,899.89,494.61,898.89,496.94,897.89z"
   id="path134"
   style="stroke-width:0.3;stroke-miterlimit:4;stroke-dasharray:none;stroke:none;stroke-opacity:1" />
<path
   class="st0"
   d="M697.91,897.89c35.95-1.06,44.58,57.71,10,63.99C677.9,967.33,667.29,913.44,697.91,897.89z"
   id="path136"
   style="stroke-width:0.3;stroke-miterlimit:4;stroke-dasharray:none;stroke:none;stroke-opacity:1" />
<path
   class="st0"
   d="M699.91,907.89c-2.33,1.33-4.67,2.67-7,4c-5.22,15.78-0.85,29.96,9,39c3-0.33,6-0.67,9-1  c3.65-1.65,4.31-2.39,6-6c6.9-11.34-3.5-31.48-12-35C703.25,908.55,701.58,908.22,699.91,907.89z"
   id="path138"
   style="stroke-width:0.3;stroke-miterlimit:4;stroke-dasharray:none;stroke:none;stroke-opacity:1" />
<path
   class="st0"
   d="M563.93,908.89c41.36-2.08,39.07,56,14,62.99C535.32,983.76,542.52,925.21,563.93,908.89z"
   id="path140"
   style="stroke-width:0.3;stroke-miterlimit:4;stroke-dasharray:none;stroke:none;stroke-opacity:1" />
<path
   class="st0"
   d="M629.92,908.89c15.27-0.75,24.27,2.32,28,13c7.65,18.9-21.17,31.2-29,39.99c10.66-1,21.33-2,32-3  c1.92,1.39,0.6,0.1,2,2c0.67,2.67,1.33,5.33,2,8c-18.33,1-36.66,2-54.99,3c0-3.33,0-6.67,0-10c11.4-7.52,35.99-21.05,38-37  c-1.33-1.67-2.67-3.33-4-5c-0.67-0.33-1.33-0.67-2-1c-15.05-0.36-16.07,4.84-22,13c-1.67,0-3.33,0-5,0c-1-1.33-2-2.67-3-4  C613.98,915.69,620.63,913.76,629.92,908.89z"
   id="path142"
   style="stroke-width:0.3;stroke-miterlimit:4;stroke-dasharray:none;stroke:none;stroke-opacity:1" />
<path
   class="st0"
   d="M567.93,918.89c-10.74,9.17-12.68,25.27-7,39.99c3.89,1.85,5.77,2.8,12,3c2.33-1.33,4.67-2.67,7-4  c5.27-13.64,5.54-29.82-4-39C573.26,918.89,570.6,918.89,567.93,918.89z"
   id="path144"
   style="stroke-width:0.3;stroke-miterlimit:4;stroke-dasharray:none;stroke:none;stroke-opacity:1" />
<path
   class="st0"
   d="M320.96,994.88c9.91,0.83,15.41,6.61,22,11c6.33,19.33,12.67,38.66,19,57.99c0.33-0.67,0.67-1.33,1-2  c3.94-6.42,9.16-22.02,8-29c-4.93-1.78-7.49-3.75-10-8c1.36-4.45,1.59-3.91,5-6c9.9,3.67,27.33,8.92,30,20c-1,1-2,2-3,3  c-2.67-0.67-5.33-1.33-8-2c-4.67,16.66-9.33,33.33-14,49.99c-4.33-1.67-8.67-3.33-13-5c-7-19.66-14-39.33-21-58.99  c-0.33,0-0.67,0-1,0c0,0.67,0,1.33,0,2c-3.33,9-6.67,18-10,27c3.67,3,7.33,6,11,9c0,1.33,0,2.67,0,4c-1,0.67-2,1.33-3,2  c-12.82-1.69-25.6-12.14-33-20c0.33-1.67,0.67-3.33,1-5c0.67-0.33,1.33-0.67,2-1c3,0.67,6,1.33,9,2c4.67-12.66,9.33-25.33,14-38  c-4.88-1.96-7.08-3.88-8-10C319.63,996.88,320.29,995.88,320.96,994.88z"
   id="path146"
   style="stroke-width:0.3;stroke-miterlimit:4;stroke-dasharray:none;stroke:none;stroke-opacity:1" />
<path
   class="st0"
   d="M657.92,1126.86c-0.67-14-1.33-28-2-41.99c-2.67-0.33-5.33-0.67-8-1c-1.33-0.67-2.67-1.33-4-2  c1-2.67,2-5.33,3-8c20.83-2.4,58.84-14.16,67.99,5c6,9.88-4.2,19.46-11,23c0.33,0.67,0.67,1.33,1,2c11.16,2.24,24.37,18.1,33,8  c12.45-3.27,2.79-31.53,0-42.99c-5.23,0.79-8.07,0.9-12-1c0.22-4.51,0.71-5.39,2-8c15.42-4.33,58.74-26.06,68.99-5  c5.16,9.91-4.13,17.98-9,24c8.33,2.67,16.67,5.33,25,8c3-1.67,6-3.33,9-5c2.33-16,4.67-32,7-47.99c-4.67,2-9.33,4-14,6  c-1.67-1.33-3.33-2.67-5-4c0-0.33,0-0.67,0-1c7.18-9.34,24.78-19.6,38-22c13.66,10.66,27.33,21.33,40.99,32  c6.41,1.79,7.02-4.99,12,1c1.31,9.1-22.16,22.29-33,23c-0.67-0.67-1.33-1.33-2-2c0-1.67,0-3.33,0-5c6.04-3.93,9.57-5.76,7-11  c-1-0.33-2-0.67-3-1c-10.66,5.67-21.33,11.33-32,17c-0.33,2.67-0.67,5.33-1,8c0.33,0,0.67,0,1,0c3.67-1,7.33-2,11-3  c0.33,1,0.67,2,1,3c0.76,6.46-37.37,28.16-46.99,26c-19.56-4.39-19.42-14.56-45.99-8c1,4.33,2,8.67,3,13c5.32-2.32,9.72-3.58,15-1  c-0.22,4.51-0.71,5.39-2,8c-9.11,2.61-50.09,16.45-54.99,14c-14.29-6.68-23.62-21.65-45.99-15c0,0.33,0,0.67,0,1c0.67,4,1.33,8,2,12  c4.82-1.47,10.32-0.85,14,1c0,1.67,0,3.33,0,5c-1,0.67-2,1.33-3,2c-9.06,6.35-72.27,9.84-76.99,2c3.47-5.27,6.86-4.36,13-7  c-1-2-2-4-3-6c-11.71-0.27-29.67-1.89-38,2c-0.67,1.67-1.33,3.33-2,5c6.97-0.02,9.35,1.17,13,4c-0.33,1.33-0.67,2.67-1,4  c-1.39,1.92-0.1,0.6-2,2c-7.76,4.05-29.29,0.94-36-3c0.67-2.33,1.33-4.67,2-7c15.99-3.66,24.61-28.66,31-41.99  c-5.67-0.67-11.33-1.33-17-2c-0.67-1.33-1.33-2.67-2-4c1.77-3,1.75-3.33,5-5c12.33,0,24.66,0,37,0c9.66,17.33,19.33,34.66,29,51.99  C647.52,1128.27,647.54,1127.54,657.92,1126.86z"
   id="path148"
   style="stroke-width:0.3;stroke-miterlimit:4;stroke-dasharray:none;stroke:none;stroke-opacity:1" />
<path
   class="st0"
   d="M843.89,1029.87c-1.33,7.66-2.67,15.33-4,23c6.67-3.33,13.33-6.67,20-10c-0.67-1-1.33-2-2-3  C853.23,1036.54,848.56,1033.2,843.89,1029.87z"
   id="path150"
   style="stroke-width:0.3;stroke-miterlimit:4;stroke-dasharray:none;stroke:none;stroke-opacity:1" />
<path
   class="st0"
   d="M406.95,1038.87c12.33,4,24.66,8,37,12c6,20.33,12,40.66,18,60.99c3.08,3.25,6.2,1.81,9,6  c-1.47,4.6-1.87,3.53-5,6c-11.77-3.23-23.84-5.43-33-11c0-1.67,0-3.33,0-5c1-0.67,2-1.33,3-2c3.67,0.33,7.33,0.67,11,1  c-1.33-3-2.67-6-4-9c-14.85-2.85-27.69-13.15-38-6c0.33,0.67,0.67,1.33,1,2c3.33,1.67,6.67,3.33,10,5c-0.33,2.33-0.67,4.67-1,7  c-14.82,0.1-26.68-6.92-36-13c0.22-4.51,0.71-5.39,2-8c16.74,1.21,21.25-12.89,33-22c2-2.67,4-5.33,6-8c0-0.33,0-0.67,0-1  c-6.11-0.94-12.37-3.38-15-8c-0.33-1.33-0.67-2.67-1-4C404.95,1040.87,405.95,1039.87,406.95,1038.87z"
   id="path152"
   style="stroke-width:0.3;stroke-miterlimit:4;stroke-dasharray:none;stroke:none;stroke-opacity:1" />
<path
   class="st0"
   d="M770.9,1057.87c-6.33,2-12.67,4-19,6c1,6,2,12,3,18c0.33,0,0.67,0,1,0c12.51-4.39,23.65-7.35,29-19  c-0.33-1-0.67-2-1-3c-1-0.33-2-0.67-3-1C777.57,1058.53,774.24,1058.2,770.9,1057.87z"
   id="path154"
   style="stroke-width:0.3;stroke-miterlimit:4;stroke-dasharray:none;stroke:none;stroke-opacity:1" />
<path
   class="st0"
   d="M476.94,1060.87c10.98,1.93,23.85,4.09,32,9c0,0.33,0,0.67,0,1c-0.67,2-1.33,4-2,6c-3.67,0-7.33,0-11,0  c5,13.33,10,26.66,15,39.99c1.33-1,2.67-2,4-3c7-10.33,14-20.67,21-31c-6.1-0.33-8.28-1.75-12-4c0.67-2.33,1.33-4.67,2-7  c9.55-1.77,26.75,0.77,34,5c0.33,1,0.67,2,1,3c-0.33,1-0.67,2-1,3c-20.5,9.02-30.22,48.51-47.99,50.99c-3-0.67-6-1.33-9-2  c-9.27-21.6-15.88-47.31-30-63.99c0.67-2,1.33-4,2-6C475.61,1061.53,476.27,1061.2,476.94,1060.87z"
   id="path156"
   style="stroke-width:0.3;stroke-miterlimit:4;stroke-dasharray:none;stroke:none;stroke-opacity:1" />
<path
   class="st0"
   d="M432.95,1062.87c-4.67,5.33-9.33,10.67-14,16c7,2.33,14,4.67,21,7C437.61,1078.2,435.28,1070.53,432.95,1062.87  z"
   id="path158"
   style="stroke-width:0.3;stroke-miterlimit:4;stroke-dasharray:none;stroke:none;stroke-opacity:1" />
<path
   class="st0"
   d="M670.92,1099.86c14.33,0.23,32.22-4.65,31-17c-8.49-4.15-22.33-3.08-32,0  C670.25,1088.53,670.58,1094.2,670.92,1099.86z"
   id="path160"
   style="stroke-width:0.3;stroke-miterlimit:4;stroke-dasharray:none;stroke:none;stroke-opacity:1" />
<path
   class="st0"
   d="M598.93,1090.86c-3.33,6.67-6.67,13.33-10,20c7,0,14,0,21,0c0-0.33,0-0.67,0-1  C606.26,1103.53,602.59,1097.2,598.93,1090.86z"
   id="path162"
   style="stroke-width:0.3;stroke-miterlimit:4;stroke-dasharray:none;stroke:none;stroke-opacity:1" />
<path
   style="fill:#000000;fill-opacity:1;stroke:none;stroke-width:0.30157185;stroke-miterlimit:4;stroke-dasharray:none;stroke-opacity:1"
   d="m 572.644,1068.1998 c -51.54293,-4.173 -106.00005,-17.0724 -148.10421,-35.0819 C 312.33409,985.12344 223.3038,898.54064 177.27202,792.64772 133.77526,692.58644 129.68521,569.54898 166.15615,458.25806 c 11.81197,-36.04419 29.70013,-72.64346 51.44496,-105.25669 33.31007,-49.95896 78.61347,-95.02384 128.18424,-127.50936 40.63677,-26.63074 80.88172,-44.87186 125.32947,-56.80586 34.28686,-9.20586 38.44894,-10.00679 68.8589,-13.25087 29.32168,-3.12799 30.09465,-3.15779 68.8589,-2.65529 50.6592,0.65671 65.67932,2.32792 100.40691,11.1718 162.66344,41.42459 289.49754,160.78465 332.80827,313.19664 12.3606,43.49725 16.9667,77.38182 17.0126,125.15231 0.045,46.86452 -4.325,83.43564 -15.0424,125.8807 -13.0055,51.5075 -31.0628,92.37654 -60.30437,136.48678 -33.66484,50.78266 -75.2249,91.75987 -128.39799,126.59729 -33.9631,22.25159 -77.21763,43.40789 -116.92457,57.18919 -14.16949,4.9179 -29.0589,8.058 -57.68383,12.165 -13.5456,1.9436 -30.7352,4.4745 -38.1991,5.6243 -15.66727,2.4135 -51.73776,3.4233 -69.86414,1.9558 z m 41.71744,-39.1906 c 42.5144,-2.5705 82.48927,-10.4823 122.10463,-24.1667 28.85941,-9.9689 51.45132,-20.41963 81.49484,-37.69845 36.04773,-20.73199 49.00656,-29.76435 60.76046,-42.35032 l 7.24285,-7.75557 -13.81424,-13.1291 -13.81424,-13.1291 1.58423,-3.00347 c 0.87133,-1.65191 5.23057,-6.60635 9.68718,-11.00985 l 8.10295,-8.00637 4.2843,3.96954 c 2.35636,2.18324 8.8346,8.40611 14.39609,13.82859 6.85494,6.68359 10.61351,9.66653 11.66948,9.26131 2.50972,-0.96307 34.08867,-41.15425 42.24758,-53.76937 14.1657,-21.9027 25.93322,-44.47966 38.5629,-73.98618 21.42965,-50.06579 30.04725,-88.93835 31.28805,-141.13505 1.437,-60.45295 -8.5926,-115.7239 -31.5521,-173.87585 -14.53659,-36.81843 -45.51968,-92.30038 -62.95481,-112.73423 -7.04871,-8.26104 -15.79505,-16.0173 -17.89975,-15.87349 -0.7526,0.0515 -6.95338,6.14983 -13.77953,13.55202 -14.60585,15.8384 -12.68797,15.66599 -25.95185,2.33282 l -8.37577,-8.41954 14.52245,-14.58572 c 16.23984,-16.31058 15.95251,-15.47702 7.08536,-20.55503 -6.38329,-3.65556 -15.27575,-10.53113 -28.64932,-22.15141 -19.55589,-16.99206 -31.58584,-24.94028 -61.3431,-40.5295 -57.03171,-29.87774 -127.87635,-47.45493 -191.26645,-47.45493 -12.14104,0 -76.46257,7.44293 -91.92998,10.63763 -45.33925,9.36454 -123.79088,45.6196 -164.61423,76.07361 -11.14367,8.31311 -27.65022,23.9495 -27.63688,26.17996 0.004,0.66191 2.76352,3.46526 6.13235,6.22967 8.19251,6.72265 17.73671,17.00031 19.79465,21.31585 l 1.67055,3.50318 -9.90986,9.64007 -9.90985,9.64008 -2.04333,-2.95004 c -2.75562,-3.97843 -20.48402,-21.56732 -24.71495,-24.52047 l -3.39202,-2.36761 -10.17872,10.49922 c -10.55969,10.89222 -19.05879,22.1937 -29.12269,38.72521 -9.13306,15.00248 -25.57567,44.97592 -31.07149,56.64062 -50.045,106.21884 -56.30343,224.58511 -17.31326,327.44726 6.07362,16.02314 29.11673,63.34897 40.75171,83.69565 14.82691,25.92858 28.3375,44.3724 37.52444,51.22603 8.02891,5.98971 8.70349,5.97097 13.066,-0.3632 4.51844,-6.56057 12.69361,-14.45873 19.30709,-18.65288 l 4.84198,-3.07068 4.40016,4.2786 c 2.4201,2.35323 6.69349,6.9077 9.49642,10.12105 l 5.09625,5.84243 -3.9231,3.19332 c -12.09208,9.84274 -22.52001,22.05877 -22.52001,26.38159 0,1.85549 4.3844,5.90843 20.54593,18.99268 27.4851,22.25173 43.44998,32.55915 74.44919,48.06673 72.99989,36.51869 134.48403,50.26769 205.57146,45.96939 z"
   id="path1102"
   inkscape:connector-curvature="0" /><path
   style="fill:#000000;fill-opacity:1;stroke:none;stroke-width:0.30157185;stroke-miterlimit:4;stroke-dasharray:none;stroke-opacity:1"
   d="m 567.88132,1139.6035 c -8.34279,-1.0695 -14.83948,-3.0794 -14.83948,-4.5911 0,-3.1914 2.04094,-6.2585 4.59037,-6.8984 5.61481,-1.4092 13.02279,-10.7847 20.71637,-26.2185 3.9818,-7.9877 7.04134,-14.72 6.79897,-14.9607 -0.24237,-0.2406 -3.99268,-0.9309 -8.33402,-1.5338 -4.34135,-0.603 -8.29948,-1.3473 -8.79585,-1.6541 -1.51168,-0.9343 -1.00979,-4.0514 0.93583,-5.8121 1.57344,-1.424 4.50655,-1.6592 20.3561,-1.6323 l 18.51777,0.032 14.39745,26.1048 14.39744,26.1048 h 4.80596 c 2.64327,0 7.62745,-0.2949 11.07595,-0.6554 l 6.27,-0.6553 -0.57644,-7.6379 c -0.31705,-4.2008 -0.86308,-13.8226 -1.2134,-21.3817 l -0.63695,-13.7438 -4.7059,-0.6472 c -7.0053,-0.9635 -7.56293,-1.5363 -5.74078,-5.8974 0.84207,-2.0153 1.76551,-3.6643 2.05209,-3.6643 0.28658,0 7.66047,-1.1711 16.38644,-2.6026 17.33541,-2.8437 31.5978,-3.4257 38.18625,-1.5582 7.60108,2.1545 13.36513,8.7179 13.36513,15.2185 0,4.4616 -2.2718,8.2548 -7.74684,12.9347 -3.01547,2.5776 -4.4185,4.4246 -3.79587,4.997 3.12736,2.8755 23.25424,12.2255 26.31659,12.2255 4.58563,0 12.13623,-5.1512 12.95513,-8.8383 0.33251,-1.4971 0.813,-3.4942 1.06777,-4.4379 0.58653,-2.1728 -2.21802,-18.7804 -4.58046,-27.1239 -1.74649,-6.1681 -1.89077,-6.3453 -5.21565,-6.4074 -7.5921,-0.1416 -7.9439,-0.2837 -7.92765,-3.2032 0.008,-1.5204 0.3858,-3.3483 0.83852,-4.0618 1.18059,-1.8609 34.45806,-12.8746 43.19849,-14.2972 14.848,-2.4168 25.29294,2.1752 26.32509,11.5736 0.58398,5.3177 -0.31582,7.8172 -5.0267,13.9635 l -5.01598,6.5444 12.74818,4.1474 12.74817,4.1474 4.07936,-2.2311 c 2.24366,-1.2271 4.40738,-2.5169 4.80829,-2.8663 0.53934,-0.47 7.81561,-45.8826 7.81561,-48.7786 0,-0.2589 -3.20488,0.8931 -7.12195,2.56 -6.68911,2.8464 -7.26951,2.934 -9.54977,1.4399 -1.33531,-0.875 -2.42783,-2.0122 -2.42783,-2.5272 0,-1.9713 12.95952,-11.3789 21.61265,-15.6892 15.04851,-7.496 13.19335,-7.9692 34.72617,8.857 24.0601,18.8011 22.99786,18.1401 26.94137,16.7654 7.56863,-2.6385 8.59891,3.1557 1.73123,9.7361 -5.22308,5.0046 -19.87081,12.5754 -24.79001,12.813 -3.11819,0.1506 -3.44989,-0.105 -3.69871,-2.8502 -0.22575,-2.4908 0.34295,-3.4111 3.26703,-5.2868 2.90211,-1.8616 3.54035,-2.8825 3.54035,-5.6629 0,-2.4672 -0.51216,-3.5258 -1.87887,-3.8832 -2.46848,-0.6455 -33.49064,15.5892 -34.45272,18.03 -1.19429,3.0299 -0.96197,7.3587 0.39429,7.347 0.6911,-0.01 3.3693,-0.6521 5.95156,-1.4357 4.20214,-1.2753 4.75944,-1.257 5.30877,0.1745 1.37663,3.5875 -10.57516,12.6034 -27.46463,20.7181 -14.28975,6.8657 -18.63595,6.9533 -32.29851,0.6516 -7.02919,-3.2422 -11.16345,-4.5139 -15.66354,-4.8183 -7.28904,-0.4929 -17.86448,1.4446 -17.20918,3.153 0.2468,0.6434 1.03234,3.778 1.74565,6.9658 1.17147,5.2354 1.49986,5.7228 3.39519,5.039 1.15406,-0.4163 4.36007,-0.7627 7.12448,-0.7697 l 5.02619,-0.013 -0.15608,3.3394 c -0.0859,1.8366 -0.33166,3.5149 -0.54626,3.7295 -1.77999,1.78 -47.64607,14.5438 -52.26242,14.5438 -1.94159,0 -6.21654,-2.0932 -12.22749,-5.9871 -12.88499,-8.347 -18.01427,-10.4873 -25.27929,-10.5485 -3.31729,-0.028 -7.32492,0.3094 -8.90583,0.7498 -2.8438,0.7922 -2.86689,0.8607 -2.16977,6.4404 1.00948,8.0796 1.0588,8.1438 5.85576,7.62 5.77864,-0.6309 9.97879,1.0806 9.56181,3.8963 -0.46111,3.1137 -5.8519,5.5189 -16.90746,7.5436 -12.38436,2.268 -52.6406,2.6042 -58.62084,0.4896 -3.65553,-1.2926 -3.756,-1.4438 -2.14357,-3.2255 0.93045,-1.0282 3.90032,-2.6029 6.5997,-3.4995 2.69939,-0.8966 4.90797,-1.8425 4.90797,-2.102 0,-0.2594 -0.66724,-1.762 -1.48276,-3.3391 -1.44532,-2.7949 -1.7494,-2.8855 -12.04087,-3.587 -17.76901,-1.2111 -27.86076,0.7003 -29.56895,5.6004 -0.99362,2.8503 -0.91813,2.9643 1.96235,2.9643 3.98471,0 9.96781,2.5691 9.96781,4.2802 0,5.4678 -8.20737,7.5879 -22.35437,5.7745 z m 42.45916,-29.2101 c 0,-1.2262 -11.11065,-20.3469 -11.54379,-19.8662 -0.1585,0.176 -2.60605,4.9566 -5.43899,10.6236 l -5.15082,10.3037 h 11.0668 c 7.09621,0 11.0668,-0.3807 11.0668,-1.0611 z m 79.69176,-13.0145 c 6.21322,-2.3247 11.29203,-7.1835 12.2422,-11.712 0.6246,-2.9768 0.43204,-3.2503 -3.16308,-4.4921 -4.64684,-1.605 -19.3168,-1.5882 -25.18949,0.029 l -4.27226,1.1764 v 5.8671 c 0,3.2269 0.29444,7.3393 0.65432,9.1386 l 0.65433,3.2717 6.85975,-0.6376 c 3.77287,-0.3506 9.26927,-1.539 12.21423,-2.6409 z m 74.19208,-17.9311 c 13.04957,-4.8754 22.19372,-12.9982 20.53078,-18.2377 -0.64537,-2.0333 -1.64381,-2.4171 -9.05274,-3.4798 -5.6243,-0.8066 -24.86425,5.0793 -24.20335,7.4043 0.24808,0.8727 0.99453,5.0925 1.65879,9.3773 0.67154,4.3318 1.7044,7.789 2.32638,7.787 0.61525,0 4.54831,-1.285 8.74014,-2.8511 z m 86.38877,-31.3336 c 8.79948,-4.4158 9.90101,-5.252 8.93874,-6.7854 -1.22995,-1.9599 -15.26935,-12.3115 -15.8926,-11.718 -0.36261,0.3454 -4.09419,21.0069 -4.11524,22.7859 -0.0144,1.2154 0.54312,0.9997 11.0691,-4.2825 z"
   id="path1104"
   inkscape:connector-curvature="0" /><path
   style="fill:#000000;fill-opacity:1;stroke:none;stroke-width:0.30157185;stroke-miterlimit:4;stroke-dasharray:none;stroke-opacity:1"
   d="m 507.25474,1132.3319 -4.06967,-0.9728 -6.39028,-16.7377 c -8.25003,-21.6088 -12.96355,-31.8172 -18.61851,-40.3235 -3.89025,-5.8518 -4.43024,-7.2537 -3.61738,-9.3917 0.52552,-1.3822 1.34536,-2.7541 1.82187,-3.0486 1.32424,-0.8184 22.25981,3.8999 27.62099,6.2251 4.65084,2.0171 4.72007,2.1136 3.67131,5.1221 -1.01371,2.9079 -1.34941,3.0663 -6.4994,3.0663 -2.98676,0 -5.43048,0.3853 -5.43048,0.8561 0,1.2868 14.12154,38.7452 14.90381,39.5334 0.37257,0.3755 1.59338,-0.077 2.7129,-1.0052 1.97555,-1.6381 21.13881,-29.0031 22.14306,-31.6201 0.32593,-0.8494 -0.99494,-1.7185 -3.79748,-2.4988 -6.42512,-1.7888 -7.13648,-2.4973 -6.30557,-6.2804 l 0.71967,-3.2767 11.19934,0.5241 c 13.97029,0.6538 22.75959,3.4854 22.75959,7.3324 0,1.6178 -0.91259,2.8871 -2.76441,3.845 -4.5873,2.3728 -13.51524,12.5731 -20.78991,23.7526 -9.5813,14.7244 -13.51888,19.7576 -17.62615,22.531 -4.62564,3.1234 -6.70892,3.547 -11.6433,2.3674 z"
   id="path1106"
   inkscape:connector-curvature="0" /><path
   style="fill:#000000;fill-opacity:1;stroke:none;stroke-width:0.30157185;stroke-miterlimit:4;stroke-dasharray:none;stroke-opacity:1"
   d="m 453.28412,1119.9588 c -15.14109,-4.3947 -19.86577,-6.7551 -19.86577,-9.925 0,-3.0943 2.18921,-3.8534 8.74875,-3.0339 2.92853,0.3659 5.3246,0.4445 5.3246,0.1746 0,-0.2698 -0.88976,-2.5021 -1.97725,-4.9605 l -1.97726,-4.4699 -12.85003,-4.2257 c -12.95619,-4.2606 -20.54671,-5.2416 -24.43893,-3.1586 -2.80503,1.5012 -1.5067,3.4137 4.10034,6.0399 5.03756,2.3594 6.17535,4.5673 4.06811,7.8942 -1.84638,2.915 -18.62263,-1.8053 -29.24982,-8.2299 -4.94057,-2.9868 -5.49132,-3.6561 -5.1764,-6.2902 0.49128,-4.1092 0.84388,-4.4555 4.53573,-4.4555 6.49521,0 12.74358,-4.3829 24.57467,-17.2378 6.18716,-6.7225 11.24937,-12.7381 11.24937,-13.3679 0,-0.6297 -2.02265,-1.686 -4.49477,-2.3472 -4.88874,-1.3075 -10.3068,-5.6433 -10.78562,-8.6312 -0.69562,-4.3408 2.31841,-4.084 20.54701,1.7508 l 17.69531,5.6642 1.52989,4.7703 c 0.84143,2.6237 4.77056,15.8532 8.73139,29.3988 7.2898,24.9303 8.94385,29.1519 11.42176,29.1519 0.75532,0 2.36204,0.8006 3.57048,1.7792 l 2.19717,1.7791 -2.15876,2.7444 c -1.18732,1.5095 -2.4652,2.7144 -2.83973,2.6776 -0.37454,-0.037 -5.99064,-1.6081 -12.48024,-3.4917 z m -13.20421,-35.3945 c -0.28082,-0.9675 -1.95825,-6.4877 -3.72761,-12.2672 l -3.21703,-10.508 -3.41506,3.974 c -1.87829,2.1857 -5.21554,6.0822 -7.41611,8.659 l -4.00104,4.685 10.32205,3.5288 c 12.25404,4.1894 12.10369,4.1641 11.4548,1.9284 z"
   id="path1108"
   inkscape:connector-curvature="0" /><path
   style="fill:#000000;fill-opacity:1;stroke:none;stroke-width:0.30157185;stroke-miterlimit:4;stroke-dasharray:none;stroke-opacity:1"
   d="m 364.55945,1086.815 -6.03144,-2.2399 -10.05844,-28.0264 c -5.53215,-15.4146 -10.43173,-28.9312 -10.88797,-30.0369 -0.65228,-1.5809 -1.9934,1.0811 -6.27669,12.459 -2.99595,7.9583 -5.42578,14.9698 -5.39962,15.5812 0.0262,0.6115 2.51413,3.0852 5.52882,5.4971 5.7553,4.6047 6.47526,6.1037 3.9415,8.2066 -1.9477,1.6164 -7.47474,0.1214 -15.76038,-4.263 -6.87449,-3.6378 -17.88324,-13.3343 -17.88324,-15.7516 0,-3.1449 1.8174,-3.9351 6.67031,-2.9001 2.49111,0.5313 4.69278,0.8026 4.89258,0.6028 0.70184,-0.7019 13.56809,-36.2099 13.56809,-37.445 0,-0.6872 -1.10106,-1.8387 -2.44681,-2.559 -2.75682,-1.4754 -5.11917,-6.25331 -4.23327,-8.56192 1.22159,-3.18343 7.14186,-1.48688 16.30963,4.67382 l 6.11121,4.1067 9.39678,29.0249 c 5.16823,15.9637 9.72678,29.0249 10.13012,29.0249 1.8151,0 8.64814,-19.4556 9.00279,-25.6336 0.30836,-5.3716 0.003,-5.9982 -4.05504,-8.3154 -4.34157,-2.4792 -6.08496,-6.2937 -4.01596,-8.7867 1.65012,-1.9882 3.4797,-1.8864 9.89152,0.5506 11.33813,4.3094 17.61859,8.3413 20.7869,13.3448 1.60202,2.53 1.62889,2.9845 0.25744,4.3559 -1.24317,1.2432 -2.25446,1.3315 -5.3761,0.4696 -2.11469,-0.5839 -3.92733,-0.9608 -4.02808,-0.8376 -0.10075,0.1233 -3.01605,10.4021 -6.47845,22.842 -3.4624,12.4398 -6.57191,23.5717 -6.91002,24.7375 l -0.61475,2.1195 z"
   id="path1110"
   inkscape:connector-curvature="0" /><path
   style="fill:#000000;fill-opacity:1;stroke:none;stroke-width:0.30157185;stroke-miterlimit:4;stroke-dasharray:none;stroke-opacity:1"
   d="m 168.07891,420.43419 c -0.71566,-1.33722 -1.06083,-3.7121 -0.76704,-5.27751 0.29379,-1.5654 0.83972,-4.42944 1.21319,-6.36452 l 0.67902,-3.51834 -22.44842,-7.5393 c -12.34664,-4.14661 -23.08927,-7.53929 -23.87252,-7.53929 -0.78325,0 -1.85659,1.35707 -2.3852,3.01571 -1.30268,4.08749 -6.64094,9.54978 -9.33293,9.54978 -4.32658,0 -5.03317,-2.40929 -3.24408,-11.06153 4.77095,-23.07284 26.47824,-52.73432 48.28919,-65.98377 l 5.79035,-3.51745 5.27913,1.5906 c 8.30326,2.50177 10.50744,4.90848 11.77277,12.85447 1.72745,10.84796 0.60254,15.96674 -7.62354,34.69028 -2.97229,6.76529 -5.40416,13.16887 -5.40416,14.23017 0,2.53748 8.32139,5.59351 11.13321,4.08867 1.0263,-0.54926 3.7365,-4.20141 6.02268,-8.11589 6.17293,-10.56952 8.86434,-13.2734 12.34306,-12.4003 1.5571,0.3908 3.08402,1.36971 3.39317,2.17533 1.83994,4.7948 -7.58191,26.45708 -18.81877,43.26727 -4.53393,6.78268 -5.9957,8.27246 -8.12336,8.27899 -1.72047,0.005 -3.03291,-0.81114 -3.89575,-2.42337 z m -7.7493,-51.75272 c 5.5434,-11.5949 6.91744,-18.98274 4.75125,-25.54634 -1.01027,-3.06117 -1.7165,-3.63756 -5.17229,-4.22142 -3.72643,-0.62957 -4.38186,-0.35188 -9.51007,4.02929 -8.72082,7.45043 -18.55197,22.82774 -18.55197,29.0179 0,1.4049 10.85087,6.45637 16.39797,7.63384 5.73117,1.21655 6.70747,0.33491 12.08511,-10.91327 z"
   id="path1112"
   inkscape:connector-curvature="0" /><path
   style="fill:#000000;fill-opacity:1;stroke:none;stroke-width:0.30157185;stroke-miterlimit:4;stroke-dasharray:none;stroke-opacity:1"
   d="m 199.12655,328.00371 c -13.26996,-3.57796 -20.77788,-12.18268 -23.14704,-26.52847 -2.14891,-13.01217 3.3173,-30.35793 12.74196,-40.43365 5.88695,-6.29362 8.83526,-8.12541 21.12942,-13.12774 11.07033,-4.50436 19.0543,-5.20019 28.26899,-2.46372 8.78415,2.60861 14.38583,7.13598 18.26233,14.75994 3.10513,6.10689 3.41435,7.49768 3.35257,15.07859 -0.11758,14.42712 -5.85459,27.8254 -16.61689,38.80724 -12.7236,12.98316 -28.69441,18.03231 -43.99134,13.90781 z m 26.77459,-15.74587 c 10.81935,-5.23756 18.51117,-17.05124 19.32132,-29.67517 0.42321,-6.59453 0.16963,-8.06459 -2.24102,-12.99179 -3.22762,-6.59702 -8.26169,-10.02754 -17.11697,-11.66452 l -5.80681,-1.07345 -10.91422,5.27091 c -11.48441,5.54628 -13.83448,7.7445 -17.62889,16.48983 -2.63179,6.06574 -2.42249,18.87078 0.39638,24.25061 3.42174,6.53042 7.62886,9.48237 16.83641,11.81336 3.87723,0.98156 12.6979,-0.26272 17.1538,-2.41978 z"
   id="path1114"
   inkscape:connector-curvature="0" /><path
   style="fill:#000000;fill-opacity:1;stroke:none;stroke-width:0.30157185;stroke-miterlimit:4;stroke-dasharray:none;stroke-opacity:1"
   d="m 277.10362,254.87887 c -13.80229,-10.29081 -27.7973,-19.26628 -33.76268,-21.65315 -3.56186,-1.42517 -4.80328,-1.46822 -9.54409,-0.33092 -6.28359,1.50742 -10.47354,0.33982 -10.47354,-2.9186 0,-2.1241 5.28148,-9.03453 10.34679,-13.53803 8.85517,-7.873 21.72904,-17.74105 23.145,-17.74105 2.83866,0 6.71779,2.2881 6.71779,3.96247 0,0.89611 -2.7177,4.31862 -6.03933,7.60559 -3.32162,3.28697 -5.92268,6.30273 -5.78012,6.7017 0.30435,0.85177 28.27061,21.90757 28.62581,21.55237 0.13257,-0.13257 -1.76797,-6.76865 -4.22342,-14.74684 l -4.46445,-14.50581 2.72612,-2.24341 c 1.49937,-1.23388 4.34671,-3.39486 6.32743,-4.80218 l 3.60131,-2.55876 11.9799,5.64981 c 13.84712,6.53041 16.77472,7.74063 16.21117,6.70144 -2.24584,-4.14132 -16.30584,-28.09977 -16.87915,-28.7623 -0.41403,-0.47847 -2.26121,0.25976 -4.10485,1.6405 -5.07461,3.8005 -9.45186,5.76351 -12.85191,5.76351 -2.80727,0 -3.06564,-0.28381 -3.06564,-3.36752 0,-10.34054 16.88296,-22.31058 61.18614,-43.38105 31.29695,-14.88473 37.21033,-17.83804 44.49549,-22.22228 3.11318,-1.87351 6.27968,-3.40205 7.03668,-3.39674 0.79456,0.006 3.26487,4.52333 5.84394,10.68751 l 4.46757,10.67786 -3.31862,2.96519 c -2.56223,2.28935 -3.92419,2.8239 -5.97544,2.34529 -2.48058,-0.57879 -7.3954,-5.08464 -9.69348,-8.8869 -0.88313,-1.46116 -2.95897,-0.62026 -17.08907,6.92264 -8.84611,4.72221 -16.43651,8.93094 -16.86755,9.35273 -0.43104,0.42179 0.79307,3.38541 2.72025,6.58581 1.92719,3.20041 3.66565,6.30393 3.86324,6.8967 0.20537,0.61611 3.26476,-0.54708 7.14233,-2.71554 6.3616,-3.55761 6.74423,-3.97027 6.15764,-6.64096 -0.49446,-2.25125 -0.008,-3.5384 2.32157,-6.14591 2.88941,-3.23381 3.0283,-3.27392 7.10703,-2.0519 3.7477,1.12284 4.50788,1.93709 7.66932,8.21489 3.85637,7.65772 4.58023,13.84609 1.92963,16.49668 -2.08031,2.08032 -3.61608,1.99506 -9.47661,-0.52608 l -4.89493,-2.10574 -5.09149,2.85967 c -2.80032,1.57282 -5.09194,3.31686 -5.0925,3.87565 -7.6e-4,0.74164 7.0828,12.12719 9.53816,15.3309 0.22095,0.28829 33.57859,-15.40167 34.31911,-16.14218 0.25158,-0.25158 -0.65602,-2.97507 -2.01689,-6.05221 l -2.47428,-5.59481 2.3837,-2.57206 c 5.04542,-5.4441 11.23285,-1.89981 16.45247,9.42431 1.79673,3.89804 3.11982,7.70639 2.94023,8.463 -0.41548,1.75033 -55.69769,29.99804 -63.38255,32.38677 -5.55082,1.72539 -5.83031,1.72358 -7.7906,-0.0505 -2.84426,-2.57401 -2.59148,-3.59105 2.009,-8.0833 2.22322,-2.17093 3.82712,-4.50771 3.56421,-5.19285 -0.33386,-0.87003 -23.68373,-35.03252 -26.12021,-38.21569 -0.086,-0.11222 -3.08007,1.17467 -6.65373,2.85975 -6.20121,2.92405 -13.03162,8.27361 -13.03162,10.20632 0,0.49906 6.10806,12.46306 13.57347,26.58666 10.24015,19.37307 13.30648,26.00096 12.48631,26.98921 -2.22305,2.67863 -9.72862,4.691 -15.8457,4.24854 -4.99838,-0.36156 -7.72405,-1.42918 -17.20831,-6.74036 -6.19807,-3.47092 -11.48279,-6.09719 -11.74382,-5.83616 -0.26103,0.26103 1.97225,8.41686 4.96286,18.12406 l 5.43745,17.64946 -5.63221,4.57181 c -3.09772,2.51449 -5.8584,4.53695 -6.13484,4.49435 -0.27644,-0.0426 -5.93091,-4.12473 -12.56549,-9.07138 z"
   id="path1116"
   inkscape:connector-curvature="0" /><path
   style="fill:#000000;fill-opacity:1;stroke:none;stroke-width:0.30157185;stroke-miterlimit:4;stroke-dasharray:none;stroke-opacity:1"
   d="m 429.48369,171.37111 c -1.24166,-3.56183 -1.28088,-3.51128 5.44252,-7.01458 2.21152,-1.15233 4.15528,-2.21157 4.31945,-2.35386 0.16417,-0.14228 -3.58377,-9.96281 -8.32876,-21.8234 l -8.62725,-21.56471 -7.75507,0.3853 c -9.23947,0.45905 -10.90855,-0.30516 -9.55581,-4.37528 0.79345,-2.38734 2.57898,-3.60022 10.42623,-7.08235 25.76782,-11.434199 49.41364,-15.897716 62.93981,-11.880876 3.65087,1.084191 6.24974,2.776194 9.22961,6.008976 3.7236,4.03963 4.14781,5.02129 4.14781,9.59842 0,6.28438 -1.73303,9.77558 -7.15743,14.41867 -3.54119,3.03112 -3.99579,3.82962 -2.91899,5.12709 0.70149,0.84524 1.8256,1.53681 2.49802,1.53681 0.67242,0 5.93224,2.30822 11.68848,5.12938 5.75624,2.82115 12.67346,6.00426 15.3716,7.07357 4.86061,1.92632 4.9184,1.92608 6.28587,-0.0263 1.48325,-2.11763 5.36218,-3.60023 12.18024,-4.6555 3.0179,-0.46709 4.27227,-1.1446 4.27227,-2.30753 0,-1.80274 -6.87012,-42.238484 -7.47546,-43.998562 -0.25703,-0.747348 -2.5144,-0.830775 -7.20375,-0.266232 -8.09655,0.974733 -14.47996,-0.330452 -14.45901,-2.956365 0.0393,-4.931031 1.03179,-5.895413 7.34873,-7.140905 25.92247,-5.111059 38.5574,-6.13685 46.41785,-3.768521 3.26993,0.985217 4.02096,1.672354 4.02096,3.678849 0,3.139177 -3.38796,4.831839 -12.94872,6.469326 -5.09685,0.872942 -7.10485,1.634449 -6.97809,2.646328 0.0979,0.781383 1.19898,11.308512 2.44686,23.393622 l 2.26888,21.97292 11.6265,-0.64901 c 21.12853,-1.17941 21.8824,-1.34046 22.579,-4.82347 0.33425,-1.67127 0.60774,-5.64788 0.60774,-8.83691 0,-4.3599 0.39443,-5.94959 1.59008,-6.4084 2.33011,-0.89415 9.26598,-0.74434 9.85759,0.21292 0.27978,0.45269 0.82622,7.23806 1.2143,15.07859 l 0.70561,14.2555 -5.92987,8.4e-4 c -9.23299,0.001 -25.85455,1.73577 -52.67348,5.49649 -13.54561,1.89945 -27.68656,3.7546 -31.42435,4.12255 l -6.79598,0.669 -4.32508,-3.98672 c -11.23318,-10.35438 -26.67774,-14.4979 -41.8839,-11.23676 -5.72152,1.22704 -5.60166,0.50683 -1.79477,10.78454 1.57054,4.24009 2.32455,5.20162 3.64148,4.64366 3.18875,-1.35101 11.92543,-1.6726 14.08215,-0.51836 2.45691,1.3149 2.64812,2.60318 0.88328,5.95098 -2.0067,3.80659 -25.90666,12.22049 -34.71271,12.22049 -3.62432,0 -4.14084,-0.32132 -5.14444,-3.20027 z m 24.88012,-43.03785 c 7.66291,-2.95513 18.37088,-8.80577 21.19538,-11.58077 1.95746,-1.92317 -0.19169,-9.49736 -2.72555,-9.60554 -0.94535,-0.0404 -4.20678,-0.44866 -7.24763,-0.90732 -4.85992,-0.73305 -6.92742,-0.40604 -17.08907,2.70289 -6.35814,1.94525 -11.66826,3.63014 -11.80027,3.7442 -0.13201,0.11406 1.15239,4.35908 2.85422,9.43337 3.61026,10.7646 3.32306,10.64414 14.81292,6.21317 z"
   id="path1118"
   inkscape:connector-curvature="0" /><path
   style="fill:#000000;fill-opacity:1;stroke:none;stroke-width:0.30157185;stroke-miterlimit:4;stroke-dasharray:none;stroke-opacity:1"
   d="m 638.9898,149.4151 c -14.42493,-1.55295 -25.6336,-4.56773 -25.6336,-6.89465 0,-0.5451 0.44116,-2.15144 0.98036,-3.56963 0.97408,-2.56203 1.05456,-2.57854 12.56549,-2.57854 6.37182,0 11.58513,-0.3467 11.58513,-0.77044 0,-0.42375 0.90004,-10.94106 2.00009,-23.37182 1.10005,-12.430756 2.00476,-22.881347 2.01048,-23.223536 0.006,-0.342188 -4.62627,-0.858276 -10.29331,-1.146861 -15.24963,-0.776563 -19.6843,-3.03083 -16.25585,-8.263308 2.06565,-3.152581 10.11919,-4.040488 29.06883,-3.204854 22.82208,1.006399 42.7265,6.236761 42.7265,11.227409 0,4.397323 -1.94678,4.862077 -15.83795,3.781001 -7.04626,-0.548374 -12.96554,-0.866284 -13.15397,-0.706467 -0.69121,0.586272 -6.34241,45.863006 -5.79296,46.412456 0.31233,0.31233 5.40399,1.39175 11.31481,2.39871 12.26072,2.08873 14.23354,3.6495 11.37182,8.99667 -0.9595,1.79286 -2.15422,1.93375 -15.3299,1.8079 -7.85911,-0.0751 -17.45579,-0.47739 -21.32597,-0.89404 z"
   id="path1120"
   inkscape:connector-curvature="0" /><path
   style="fill:#000000;fill-opacity:1;stroke:none;stroke-width:0.30157185;stroke-miterlimit:4;stroke-dasharray:none;stroke-opacity:1"
   d="m 731.28585,165.51657 c -6.25701,-0.91484 -17.08835,-4.12109 -27.70941,-8.20243 -6.65211,-2.5562 -7.79061,-3.33825 -7.79061,-5.3515 0,-4.98302 0.79705,-5.53797 7.95392,-5.53797 h 6.73359 l 5.23241,-21.86395 c 2.87783,-12.02518 5.22761,-22.40511 5.22174,-23.06651 -0.006,-0.6614 -2.72482,-2.192177 -6.04211,-3.401722 -5.37178,-1.958647 -6.03144,-2.500808 -6.03144,-4.957111 0,-4.751802 1.61402,-5.223539 13.72665,-4.011961 18.06293,1.806764 34.31717,6.256407 59.65583,16.330944 6.91102,2.74779 13.58571,5.38985 14.83263,5.87123 2.25524,0.87066 2.23962,0.93059 -2.97709,11.41995 -4.31922,8.68476 -5.7143,10.64795 -7.90924,11.13004 -3.05531,0.67106 -10.26713,-2.33589 -9.62372,-4.01259 0.7963,-2.07513 2.83467,-12.75235 2.49821,-13.08596 -0.18652,-0.18494 -9.75821,-3.04127 -21.27042,-6.34741 -14.54593,-4.17738 -21.06992,-5.64993 -21.38569,-4.82703 -0.24992,0.65128 -1.28579,4.67374 -2.30194,8.93881 l -1.84754,7.75467 4.13368,1.05582 c 2.27353,0.5807 5.44517,1.48606 7.0481,2.01191 4.34635,1.42584 5.03623,1.22764 6.93903,-1.99355 1.56212,-2.64445 2.13057,-2.89 5.49425,-2.37326 5.87818,0.90302 7.27019,1.99025 7.27019,5.67843 0,9.38092 -6.7083,20.75449 -12.2413,20.75449 -4.22802,0 -6.85825,-2.68857 -6.85825,-7.01038 0,-3.84795 -0.0428,-3.88983 -5.07567,-4.96919 -2.79163,-0.5987 -6.55396,-1.08854 -8.36074,-1.08854 -3.26454,0 -3.29633,0.0478 -5.09105,7.66062 -1.89637,8.04398 -1.54151,9.37348 2.51249,9.41306 3.97908,0.0388 12.59613,3.47857 15.17512,6.05756 3.77562,3.77562 3.60518,5.80789 -0.63572,7.57986 -3.76776,1.57427 -3.59082,1.5673 -11.2759,0.44367 z"
   id="path1122"
   inkscape:connector-curvature="0" /><path
   style="fill:#000000;fill-opacity:1;stroke:none;stroke-width:0.30157185;stroke-miterlimit:4;stroke-dasharray:none;stroke-opacity:1"
   d="m 831.75964,204.68233 c -6.11518,-2.12833 -29.51453,-13.63148 -37.20904,-18.29202 -5.38799,-3.26349 -6.67999,-5.99339 -4.07122,-8.60217 2.28549,-2.28548 7.37211,-1.38183 18.09048,3.21383 l 3.71555,1.5931 10.86042,-20.83464 c 5.97323,-11.45905 10.99629,-21.1359 11.16236,-21.50412 0.16607,-0.36822 -3.22662,-1.88255 -7.5393,-3.36519 -4.31268,-1.48264 -8.36682,-2.90886 -9.0092,-3.16937 -0.65562,-0.26589 -2.86044,2.63392 -5.0262,6.61052 -3.08363,5.66193 -4.33227,7.08554 -6.2194,7.09092 -3.58761,0.0102 -9.19908,-3.01026 -9.19908,-4.95156 0,-5.15423 8.91573,-26.20414 11.09881,-26.20414 1.8514,0 11.87501,4.89027 34.60353,16.8822 20.55536,10.84535 39.76421,20.46363 43.17351,21.6179 1.19249,0.40374 -16.38812,23.82651 -17.87813,23.81914 -0.62347,-0.003 -2.81251,-0.4719 -4.86454,-1.04181 -3.17476,-0.88173 -3.82912,-1.55946 -4.38943,-4.54618 -0.52617,-2.80469 -0.14125,-4.26177 1.91561,-7.25142 2.12398,-3.08721 4.69692,-8.40876 4.69692,-9.71453 0,-0.28233 -4.75894,-2.43451 -13.78232,-6.23289 l -3.2273,-1.35853 -11.67006,19.66854 c -13.43338,22.64041 -13.35721,21.87384 -2.68041,26.97531 5.86207,2.80094 6.09194,3.05111 5.54179,6.03143 -0.94289,5.10791 -2.14301,5.63664 -8.09335,3.56568 z"
   id="path1124"
   inkscape:connector-curvature="0" /><path
   style="fill:#000000;fill-opacity:1;stroke:none;stroke-width:0.21324348;stroke-miterlimit:4;stroke-dasharray:none;stroke-opacity:1"
   d="m 901.51261,255.56767 c -12.00622,-8.0272 -34.78875,-26.69226 -36.52425,-29.92325 -0.32605,-0.60701 -0.23091,-2.41728 0.21481,-4.08716 0.75439,-2.82635 0.94766,-2.99755 3.38384,-2.99755 1.88291,0 5.2036,1.44604 12.24232,5.33109 5.31222,2.9321 9.81383,5.33108 10.00357,5.33108 0.50061,0 29.60127,-33.97866 29.99242,-35.0199 0.52059,-1.3858 -2.25989,-4.11903 -11.04544,-10.85774 -4.49588,-3.44845 -8.2404,-6.3045 -8.32114,-6.3468 -0.0808,-0.0423 0.28095,-1.50353 0.80378,-3.2472 0.86539,-2.88616 1.13168,-3.14974 2.971,-2.94084 7.45071,0.84625 29.45796,15.13051 43.54011,28.26062 6.32252,5.89507 12.66441,13.70122 13.34982,16.43209 0.61902,2.46638 -0.89608,3.76841 -4.38511,3.76841 -2.7925,0 -3.83401,-0.62094 -12.51869,-7.46352 -5.21003,-4.10494 -9.86497,-7.46352 -10.34432,-7.46352 -0.77856,0 -28.98247,30.16603 -31.40726,33.59223 -0.9048,1.27847 -0.36361,2.00462 6.99073,9.37988 l 7.97146,7.99414 -0.88365,2.94934 c -0.87409,2.91748 -0.9199,2.94934 -4.24042,2.94934 -3.01106,0 -4.22569,-0.58095 -11.79358,-5.64074 z"
   id="path1128"
   inkscape:connector-curvature="0" /><path
   style="fill:#000000;fill-opacity:1;stroke:none;stroke-width:0.21324348;stroke-miterlimit:4;stroke-dasharray:none;stroke-opacity:1"
   d="m 972.89555,331.74496 c -0.58129,-0.67783 -2.06843,-2.73359 -3.30474,-4.56835 l -2.24785,-3.33592 6.43593,-30.6915 c 3.53977,-16.88032 6.27556,-30.85188 6.07953,-31.04791 -0.26787,-0.26787 -26.14981,17.90656 -28.99747,20.36218 -0.27577,0.23781 1.25973,3.28473 3.41223,6.77093 2.9312,4.74737 3.86003,6.88765 3.70007,8.5259 -0.20877,2.13799 -0.3066,2.19218 -4.33548,2.40156 -5.11369,0.26576 -6.81063,-0.69662 -13.76195,-7.80477 -8.56885,-8.76216 -14.5098,-16.36051 -14.01378,-17.92333 1.14552,-3.60922 2.50015,-6.11565 3.297,-6.10036 0.48343,0.009 2.79816,0.80747 5.14384,1.77374 2.34568,0.96628 4.65403,1.75835 5.12966,1.76016 0.47563,0.002 2.40244,-1.35614 4.28179,-3.01766 1.87935,-1.66152 9.88665,-8.26223 17.79401,-14.66823 7.90736,-6.40601 14.37702,-11.96452 14.37702,-12.35226 0,-0.38774 -1.63385,-2.90892 -3.63078,-5.60263 -3.21748,-4.34015 -3.57845,-5.17655 -3.17112,-7.34782 0.57987,-3.09095 1.22328,-3.46963 4.89764,-2.88245 2.59131,0.4141 4.21609,1.67099 12.72895,9.8468 l 9.75847,9.37211 -5.31393,30.20949 c -2.92266,16.61522 -5.31481,30.76926 -5.3159,31.45341 -0.002,1.50935 1.63458,1.63168 2.81422,0.21031 0.4718,-0.56849 6.90976,-4.91963 14.30659,-9.66921 7.3968,-4.74957 13.6211,-8.91437 13.8316,-9.2551 0.2106,-0.34074 -0.9572,-2.30693 -2.5951,-4.36933 -5.2666,-6.6315 -6.8952,-11.96529 -4.3553,-14.26387 1.652,-1.49504 5.6048,-0.64861 9.4655,2.02686 6.5754,4.55674 16.0411,16.29972 19.6327,24.35609 1.9798,4.44088 3.0248,12.41254 1.7319,13.2116 -1.7977,1.11104 -6.1418,-0.56649 -9.4287,-3.64104 l -3.3529,-3.13623 -3.0783,1.55535 c -1.693,0.85545 -9.3156,5.60879 -16.939,10.56299 -17.21139,11.18503 -21.57257,13.82352 -26.39663,15.96982 -5.60345,2.49306 -7.33722,2.75751 -8.57972,1.30867 z"
   id="path1130"
   inkscape:connector-curvature="0" /><path
   style="fill:#000000;fill-opacity:1;stroke:none;stroke-width:0.21324348;stroke-miterlimit:4;stroke-dasharray:none;stroke-opacity:1"
   d="m 1054.692,422.20023 c -1.0287,-0.55896 -2.0638,-1.52019 -2.3001,-2.13607 -0.5472,-1.42582 -4.7252,-3.18801 -7.5586,-3.18801 -1.1984,0 -3.757,0.79966 -5.6857,1.77703 -1.9287,0.97736 -4.2371,1.77176 -5.1298,1.76533 -3.2339,-0.0233 -7.1488,-3.03016 -9.708,-7.45628 -1.3549,-2.34323 -5.9833,-10.17792 -10.2854,-17.41043 -9.3429,-15.70691 -12.2991,-21.88763 -13.7135,-28.6712 -1.2365,-5.93008 -0.60442,-11.25087 1.9256,-16.2102 3.4815,-6.82427 13.5273,-15.17607 25.5381,-21.23177 l 4.6203,-2.32948 6.0994,0.81011 c 12.6309,1.67761 20.4176,5.60577 29.7966,15.03143 4.979,5.00383 7.6625,8.41878 10.2165,13.00124 3.1293,5.61465 3.6939,7.36368 5.8448,18.1094 1.3096,6.54198 2.3897,11.94724 2.4004,12.01168 0.011,0.0644 1.6242,1.29519 3.5856,2.73501 4.58,3.36203 5.2154,4.61743 4.6455,9.17878 l -0.4604,3.68425 -8.8699,2.39641 -8.8699,2.39641 -1.9362,-1.4292 c -2.7662,-2.04192 -7.5108,-10.4391 -6.9307,-12.26659 0.2529,-0.79704 1.5623,-2.76865 2.9097,-4.38136 3.0154,-3.60924 3.5179,-5.31653 3.4644,-11.77177 -0.035,-4.244 -0.4224,-5.84868 -2.3626,-9.78988 -5.6163,-11.40831 -18.3687,-20.5138 -31.6138,-22.57298 -12.0981,-1.88084 -21.5233,3.54979 -26.1174,15.04832 -1.387,3.4716 -1.1973,12.29623 0.3667,17.05948 2.6067,7.93879 10.4083,20.5702 15.9958,25.89837 l 2.1877,2.08619 4.2665,-2.03918 c 2.3465,-1.12155 4.2664,-2.09795 4.2664,-2.16977 0,-0.0718 -1.4299,-2.26294 -3.1775,-4.86915 -6.1614,-9.18824 -8.0645,-21.70567 -3.5627,-23.43317 1.8304,-0.70241 7.8631,3.03065 9.1045,5.63397 0.5874,1.23189 3.6358,6.63162 6.7741,11.99939 9.6144,16.44435 12.5964,26.06993 9.7697,31.53601 -1.2796,2.47446 -2.6119,2.76479 -5.4961,1.19768 z"
   id="path1132"
   inkscape:connector-curvature="0" /><path
   style="fill:#000000;fill-opacity:1;stroke:none;stroke-width:0.21324348;stroke-miterlimit:4;stroke-dasharray:none;stroke-opacity:1"
   d="m 885.99873,390.93113 c -1.83716,-2.15043 -12.8314,-12.93565 -24.43164,-23.96717 -11.60024,-11.03152 -25.20544,-24.22578 -30.23379,-29.32058 -9.69903,-9.82722 -17.51298,-19.50314 -17.51298,-21.68612 0,-0.73154 2.04909,-3.11677 4.60611,-5.36171 l 4.60611,-4.04395 38.9311,38.48773 38.9311,38.48773 -5.33109,5.66521 c -2.9321,3.11586 -5.53213,5.6615 -5.77785,5.65696 -0.24572,-0.004 -1.9499,-1.76768 -3.78707,-3.9181 z"
   id="path1134"
   inkscape:connector-curvature="0" /><path
   style="fill:#000000;fill-opacity:1;stroke:none;stroke-width:0.21324348;stroke-miterlimit:4;stroke-dasharray:none;stroke-opacity:1"
   d="m 831.11781,384.1099 c -28.86547,-28.57699 -52.60604,-52.29727 -52.75683,-52.71173 -0.15079,-0.41447 3.02018,-3.92148 7.04661,-7.79335 l 7.32077,-7.03978 4.68178,4.53913 c 8.07161,7.82566 83.87325,82.05895 92.75163,90.83256 l 8.45894,8.35914 -1.8381,3.13648 c -1.80383,3.07799 -11.2929,12.63571 -12.54495,12.63571 -0.35045,0 -24.25437,-23.38117 -53.11985,-51.95816 z"
   id="path1136"
   inkscape:connector-curvature="0" /><path
   style="fill:#000000;fill-opacity:1;stroke:none;stroke-width:0.21324348;stroke-miterlimit:4;stroke-dasharray:none;stroke-opacity:1"
   d="m 814.41128,422.74079 -53.07265,-53.13361 0.78519,-4.16834 c 0.93529,-4.96515 0.0812,-12.92579 -2.70553,-25.21704 -1.0052,-4.43356 -1.71816,-8.38942 -1.58437,-8.79079 0.13379,-0.40137 29.09229,27.66582 64.35222,62.37154 l 64.10897,63.1013 -8.74449,9.26491 c -4.80947,5.0957 -9.04199,9.36407 -9.40559,9.48527 -0.36361,0.1212 -24.5438,-23.68976 -53.73375,-52.91324 z"
   id="path1138"
   inkscape:connector-curvature="0" /><path
   style="fill:#000000;fill-opacity:1;stroke:none;stroke-width:0.21324348;stroke-miterlimit:4;stroke-dasharray:none;stroke-opacity:1"
   d="m 776.85811,450.38311 c 0,-0.5226 -0.51332,-2.03195 -1.14073,-3.35409 l -1.14072,-2.40391 -15.18585,-0.19136 -15.18585,-0.19136 16.91858,-17.40541 16.91857,-17.40541 2.07355,0.93828 c 3.773,1.70728 9.25393,6.43404 14.04807,12.11508 2.60125,3.08247 4.72954,5.8842 4.72954,6.22606 0,0.34186 -4.95791,5.57173 -11.01758,11.62194 -6.05967,6.05021 -11.01758,10.57279 -11.01758,10.05018 z"
   id="path1140"
   inkscape:connector-curvature="0" /><path
   style="fill:#000000;fill-opacity:1;stroke:none;stroke-width:0.21324348;stroke-miterlimit:4;stroke-dasharray:none;stroke-opacity:1"
   d="m 572.49978,830.59732 c -46.4326,-9.22324 -68.38303,-13.37627 -81.03252,-15.33139 -20.60559,-3.18483 -28.82504,-5.35252 -38.35671,-10.11572 -6.22569,-3.11111 -12.92472,-9.68075 -15.5441,-15.24386 -4.80892,-10.21333 -6.55269,-25.62008 -5.89667,-52.09877 0.25184,-10.1646 0.75028,-78.88446 1.10765,-152.7108 0.35737,-73.82633 0.76294,-134.34288 0.90127,-134.4812 0.39534,-0.39534 336.62299,0.69247 337.00768,1.09033 0.189,0.19548 0.42245,70.56583 0.51876,156.37856 0.13069,116.44269 -0.036,157.37555 -0.65714,161.35423 -3.6717,23.5193 -12.45283,35.47639 -30.23509,41.1705 -8.13418,2.60466 -14.47962,3.8059 -32.16745,6.08949 -17.98333,2.32175 -12.47712,1.32427 -61.27838,11.10094 -23.21318,4.65045 -43.20476,8.42135 -44.42572,8.3798 -1.22096,-0.0416 -14.69467,-2.55351 -29.94158,-5.58211 z m 38.55731,-14.54345 c 12.57049,-3.34646 21.28632,-13.0229 22.7394,-25.24562 l 0.5439,-4.57508 30.08651,-5.42482 30.08651,-5.42482 2.00079,2.90805 c 4.64955,6.75788 13.7009,12.73087 22.13873,14.60935 2.32076,0.51666 6.63389,0.75761 10.30677,0.57577 8.40116,-0.41593 14.08534,-3.03859 19.67805,-9.07938 8.71896,-9.41753 10.90528,-21.18959 6.22363,-33.5107 -2.96574,-7.80519 -10.40747,-16.28834 -17.26057,-19.67605 l -3.27983,-1.62133 0.39993,-33.91925 c 0.21995,-18.65559 0.66673,-34.63895 0.99284,-35.51857 0.32611,-0.87963 1.09127,-1.59933 1.70035,-1.59933 2.11486,0 7.82945,-3.45153 10.78698,-6.51516 5.6672,-5.87054 8.26833,-13.16528 8.19538,-22.98352 -0.0586,-7.89413 -1.88373,-14.16692 -5.85001,-20.10649 -3.69912,-5.53947 -8.51873,-9.08358 -15.09311,-11.09873 -1.16235,-0.35627 -1.24392,-2.64211 -1.24392,-34.85713 v -34.47585 l 3.9078,-1.84868 c 6.22032,-2.94268 11.28059,-8.07818 14.57551,-14.79218 12.75312,-25.98686 -6.82999,-53.02012 -34.26388,-47.29913 -9.48821,1.97864 -18.69697,8.68133 -22.56674,16.42546 -1.19292,2.38724 -2.16895,4.76915 -2.16895,5.29313 0,1.1065 -14.72201,1.26684 -44.24803,0.48192 -13.73804,-0.36521 -17.59258,-0.67051 -17.59258,-1.39342 0,-3.15909 -3.38055,-9.44902 -7.05125,-13.11972 -9.01957,-9.01957 -22.79059,-10.04299 -37.50771,-2.78747 -6.59004,3.24889 -13.0578,9.14399 -15.89038,14.48346 l -1.74424,3.28791 h -30.38841 c -29.03538,0 -30.38842,-0.0582 -30.38842,-1.30809 0,-2.57335 -4.3518,-9.95167 -7.73745,-13.11854 -8.22353,-7.69216 -22.69205,-11.29636 -30.14158,-7.50848 -9.86974,5.0185 -18.09777,13.16079 -22.71457,22.47788 -2.62881,5.30517 -2.97662,6.60986 -3.23088,12.11946 -0.23424,5.07573 -0.0109,6.90106 1.25506,10.25907 2.26191,5.99968 7.35884,11.22515 14.37366,14.73618 3.14143,1.57233 6.15746,2.85879 6.70229,2.85879 0.836,0 0.96183,5.45159 0.8062,34.92911 l -0.1844,34.92912 -2.99533,0.88432 c -7.38867,2.18136 -13.88258,8.09113 -16.65966,15.1611 -2.31435,5.89196 -2.29798,16.31123 0.0368,23.43877 2.92728,8.93618 9.4114,17.2655 16.59648,21.31938 l 3.37563,1.90456 -0.0957,15.28245 c -0.0526,8.40534 -0.29219,24.19494 -0.53239,35.088 l -0.43672,19.80555 -3.76266,1.4023 c -10.03106,3.73845 -17.892,17.41261 -17.89815,31.13397 -0.006,12.61813 5.96208,21.98224 17.54485,27.53005 9.13617,4.37596 19.39361,4.00931 29.51668,-1.05506 4.8043,-2.40349 11.03433,-7.71288 14.45892,-12.32225 l 1.36743,-1.84053 29.80417,5.39459 29.80418,5.39458 1.16067,5.33109 c 0.63836,2.9321 2.01553,6.99043 3.06037,9.0185 3.68628,7.15527 11.42543,13.20311 19.76535,15.44584 4.936,1.32736 14.17214,1.38379 18.93562,0.11567 z"
   id="path1142"
   inkscape:connector-curvature="0" /><path
   style="fill:#000000;fill-opacity:1;stroke:none;stroke-width:0.21324348;stroke-miterlimit:4;stroke-dasharray:none;stroke-opacity:1"
   d="m 613.54915,596.01981 -3.02095,-1.37126 v -33.4429 c 0,-29.84243 0.11953,-33.44289 1.11023,-33.44289 2.46493,0 9.40819,-4.03545 12.76638,-7.41986 1.96341,-1.97875 4.77967,-5.91675 6.25836,-8.75111 l 2.68852,-5.15338 h 30.13732 30.13732 l 0.74026,2.66554 c 0.40714,1.46605 0.74205,3.21294 0.74422,3.88198 0.003,0.89861 -77.65571,84.51064 -78.40976,84.42075 -0.072,-0.009 -1.49038,-0.63268 -3.1519,-1.38687 z"
   id="path1144"
   inkscape:connector-curvature="0" /><path
   style="fill:#000000;fill-opacity:1;stroke:none;stroke-width:0.21324348;stroke-miterlimit:4;stroke-dasharray:none;stroke-opacity:1"
   d="m 632.24204,614.72603 -1.89412,-4.73143 3.13126,-3.2652 c 1.72219,-1.79587 17.78003,-19.09854 35.68408,-38.45038 17.90405,-19.35185 34.02627,-36.6949 35.82717,-38.54012 l 3.27436,-3.35494 3.55406,0.91355 3.55406,0.91355 v 34.65468 34.65469 l -3.76378,1.27416 c -5.3762,1.82003 -8.28623,4.48868 -14.26988,13.08621 l -5.27315,7.57665 h -28.96497 -28.96497 z"
   id="path1146"
   inkscape:connector-curvature="0" /><path
   style="fill:#000000;fill-opacity:1;stroke:none;stroke-width:0.21324348;stroke-miterlimit:4;stroke-dasharray:none;stroke-opacity:1"
   d="m 672.2058,691.78253 c -20.07702,-21.59979 -37.69046,-40.59142 -39.14099,-42.20364 l -2.63732,-2.9313 1.83085,-3.99911 1.83086,-3.99912 h 29.70541 29.70541 l 1.20098,3.14474 c 2.03405,5.32608 5.04992,8.676 11.94727,13.27058 3.62571,2.41522 7.3119,5.04336 8.19153,5.8403 l 1.59933,1.44898 v 33.21742 33.21743 l -3.32528,1.13303 c -1.8289,0.62317 -3.56807,1.13303 -3.86482,1.13303 -0.29676,0 -16.96621,-17.67255 -37.04323,-39.27234 z"
   id="path1148"
   inkscape:connector-curvature="0" /><path
   style="fill:#000000;fill-opacity:1;stroke:none;stroke-width:0.21324348;stroke-miterlimit:4;stroke-dasharray:none;stroke-opacity:1"
   d="m 627.93584,766.1343 c -1.94421,-3.61018 -6.09483,-7.04747 -12.09532,-10.01659 l -5.31232,-2.62861 v -46.28819 -46.28819 l 1.81047,-0.82491 c 0.99577,-0.4537 2.38076,-0.82491 3.07776,-0.82491 0.75448,0 16.34502,16.01321 38.52809,39.57259 20.49344,21.76492 38.43355,40.89557 39.86691,42.51256 l 2.60613,2.93997 -2.07357,4.91492 c -1.14046,2.70321 -2.63308,5.46288 -3.31693,6.13259 -0.88505,0.86675 -9.74436,2.87731 -30.74205,6.97673 -16.22427,3.16749 -29.84271,5.87535 -30.26319,6.01746 -0.42049,0.14211 -1.35917,-0.84583 -2.08598,-2.19542 z"
   id="path1150"
   inkscape:connector-curvature="0" /><path
   style="fill:#000000;fill-opacity:1;stroke:none;stroke-width:0.21324348;stroke-miterlimit:4;stroke-dasharray:none;stroke-opacity:1"
   d="m 540.19698,762.24389 c -16.20275,-3.08491 -29.66919,-5.94813 -29.9254,-6.36269 -0.25622,-0.41457 -1.21652,-3.74379 -2.13399,-7.39826 l -1.66814,-6.64449 10.65794,-11.25598 c 5.86186,-6.1908 23.54485,-24.9431 39.29552,-41.6718 24.35863,-25.87115 28.86062,-30.34502 30.13026,-29.94206 0.82097,0.26057 2.47291,0.88595 3.671,1.38975 l 2.17833,0.91599 -0.18831,31.1585 c -0.10357,17.13718 -0.3857,38.07421 -0.62696,46.52675 l -0.43865,15.36826 -3.77239,1.56357 c -4.2163,1.74755 -9.12323,5.75628 -11.72889,9.58194 -1.3684,2.00911 -2.1676,2.51799 -3.85833,2.45672 -1.17284,-0.0425 -15.38924,-2.60129 -31.59199,-5.6862 z"
   id="path1152"
   inkscape:connector-curvature="0" /><path
   style="fill:#000000;fill-opacity:1;stroke:none;stroke-width:0.21324348;stroke-miterlimit:4;stroke-dasharray:none;stroke-opacity:1"
   d="m 488.00906,729.58166 -1.87289,-1.47322 V 694.78787 661.4673 l 5.71313,-2.97229 c 7.48536,-3.89431 12.14254,-8.15392 14.85944,-13.59091 1.19537,-2.39215 2.1734,-4.77807 2.1734,-5.30205 0,-0.78127 5.37817,-0.95269 29.89036,-0.95269 h 29.89035 l 1.03748,2.48303 c 0.57061,1.36566 1.11405,3.05921 1.20765,3.76343 0.21258,1.59942 -78.168,86.15905 -79.86312,86.15905 -0.6396,0 -2.00571,-0.66294 -3.0358,-1.47321 z"
   id="path1154"
   inkscape:connector-curvature="0" /><path
   style="fill:#000000;fill-opacity:1;stroke:none;stroke-width:0.21324348;stroke-miterlimit:4;stroke-dasharray:none;stroke-opacity:1"
   d="m 508.88214,618.14936 c 0,-2.64354 -4.39357,-10.05753 -7.68638,-12.97049 -1.83216,-1.6208 -5.93801,-4.24439 -9.12412,-5.83021 l -5.79291,-2.8833 -0.60439,-12.49384 c -0.93696,-19.36876 -0.63125,-39.29782 0.69663,-45.41265 1.13476,-5.22557 3.70105,-10.82498 5.18141,-11.30538 0.43776,-0.14206 16.25896,15.98764 35.15822,35.84377 18.89927,19.85613 36.70867,38.53965 39.57644,41.51892 l 5.21413,5.41687 -1.88642,4.7122 -1.88642,4.7122 h -29.4231 c -28.09798,0 -29.42309,-0.0589 -29.42309,-1.30809 z"
   id="path1156"
   inkscape:connector-curvature="0" /><path
   style="fill:#000000;fill-opacity:1;stroke:none;stroke-width:0.21324348;stroke-miterlimit:4;stroke-dasharray:none;stroke-opacity:1"
   d="m 546.41076,556.36745 c -21.2594,-22.58016 -38.90741,-41.46575 -39.21781,-41.96799 -0.31554,-0.51055 -0.006,-2.46687 0.70283,-4.43711 l 1.26719,-3.52394 h 30.61305 30.61305 l 1.23649,3.48143 c 2.74342,7.72427 8.4564,13.47323 16.73088,16.83623 l 4.04606,1.64444 v 33.16055 33.16056 l -3.55405,1.34975 c -1.95474,0.74238 -3.60585,1.35003 -3.66915,1.35035 -0.0633,3.1e-4 -17.50914,-18.4741 -38.76854,-41.05427 z"
   id="path1158"
   inkscape:connector-curvature="0" /><path
   style="fill:#000000;fill-opacity:1;stroke:none;stroke-width:0.21324348;stroke-miterlimit:4;stroke-dasharray:none;stroke-opacity:1"
   d="m 595.24575,510.30277 c -5.12435,-1.82237 -8.88515,-7.86106 -8.88515,-14.26684 0,-1.07472 1.30769,-4.1552 2.90597,-6.8455 2.41317,-4.06196 3.44777,-5.12372 6.10083,-6.26095 7.28971,-3.12473 15.4087,-0.11881 18.97894,7.02663 3.59613,7.19728 2.95927,10.90112 -2.97688,17.31288 l -3.83764,4.1451 -4.72141,-0.0501 c -2.59678,-0.0275 -6.00087,-0.5051 -7.56466,-1.06123 z"
   id="path1160"
   inkscape:connector-curvature="0" /><path
   style="fill:#000000;fill-opacity:1;stroke:none;stroke-width:0.21324348;stroke-miterlimit:4;stroke-dasharray:none;stroke-opacity:1"
   d="m 471.56453,510.23298 c -5.05603,-2.66547 -7.03255,-5.6488 -7.77199,-11.73096 -0.9037,-7.43315 1.65596,-11.94911 8.80298,-15.5309 2.99312,-1.50003 3.42654,-1.53574 8.05067,-0.66323 4.76469,0.89904 4.96786,1.02694 8.10271,5.10091 2.73808,3.55833 3.27099,4.79092 3.58935,8.3019 0.49249,5.43121 -0.67919,8.72692 -4.1626,11.70858 -4.46429,3.82127 -12.21089,5.13344 -16.61112,2.8137 z"
   id="path1162"
   inkscape:connector-curvature="0" /><path
   style="fill:#000000;fill-opacity:1;stroke:none;stroke-width:0.21324348;stroke-miterlimit:4;stroke-dasharray:none;stroke-opacity:1"
   d="m 471.56453,642.11294 c -1.17284,-0.86151 -3.49186,-2.85951 -5.15338,-4.44 -2.90506,-2.76339 -3.0208,-3.03838 -3.01699,-7.1682 0.007,-8.07607 2.07677,-11.75369 8.69479,-15.45258 2.95937,-1.65402 3.18095,-1.67345 8.36585,-0.73358 l 5.32596,0.96544 3.19866,4.37896 c 3.12655,4.28027 3.19865,4.50078 3.19865,9.78327 0,4.78738 -0.22094,5.69398 -1.93541,7.94176 -2.48692,3.26053 -6.98811,5.41799 -12.32019,5.9052 -3.60577,0.32947 -4.53826,0.15637 -6.35794,-1.18027 z"
   id="path1164"
   inkscape:connector-curvature="0" /><path
   style="fill:#000000;fill-opacity:1;stroke:none;stroke-width:0.21324348;stroke-miterlimit:4;stroke-dasharray:none;stroke-opacity:1"
   d="m 474.31161,775.7883 c -1.22573,-0.36383 -3.78465,-1.70142 -5.68649,-2.97244 -2.95764,-1.97662 -3.59139,-2.82511 -4.38064,-5.865 -1.90391,-7.33309 1.08559,-16.19987 6.37103,-18.8963 6.19301,-3.15943 17.07234,-0.24507 20.45932,5.48066 1.42116,2.40248 1.57654,3.38124 1.21902,7.67833 -0.5698,6.84856 -2.75508,10.96543 -6.88359,12.96805 -3.87439,1.87936 -8.11286,2.49294 -11.09865,1.6067 z"
   id="path1166"
   inkscape:connector-curvature="0" /><path
   style="fill:#000000;fill-opacity:1;stroke:none;stroke-width:0.21324348;stroke-miterlimit:4;stroke-dasharray:none;stroke-opacity:1"
   d="m 595.92716,798.66751 c -9.5534,-4.3395 -10.65457,-16.77196 -2.20438,-24.88782 l 2.51107,-2.41172 5.48244,0.4968 c 7.77395,0.70446 11.03756,2.75074 13.39826,8.40068 1.30451,3.12212 1.3909,6.28627 0.3006,11.00968 -0.63126,2.73479 -1.32183,3.80616 -3.28123,5.09058 -5.69223,3.73134 -11.30475,4.52848 -16.20676,2.3018 z"
   id="path1168"
   inkscape:connector-curvature="0" /><path
   style="fill:#000000;fill-opacity:1;stroke:none;stroke-width:0.21324348;stroke-miterlimit:4;stroke-dasharray:none;stroke-opacity:1"
   d="m 719.5118,775.11645 c -1.63307,-0.83064 -4.37426,-3.01236 -6.09153,-4.84826 l -3.12231,-3.338 0.51631,-5.40529 c 0.63879,-6.68751 1.89273,-9.19011 6.18147,-12.33686 4.35804,-3.1976 9.36346,-3.43445 14.84582,-0.70247 4.89578,2.43967 5.58395,3.37954 7.2498,9.90151 l 1.44375,5.65245 -2.50369,4.12151 c -4.3931,7.23184 -12.20672,10.1664 -18.51962,6.95541 z"
   id="path1170"
   inkscape:connector-curvature="0" /><path
   style="fill:#000000;fill-opacity:1;stroke:none;stroke-width:0.21324348;stroke-miterlimit:4;stroke-dasharray:none;stroke-opacity:1"
   d="m 718.92697,642.48734 c -5.50506,-2.99596 -7.64167,-6.36671 -8.51532,-13.43393 -0.389,-3.14679 -0.19181,-3.94253 1.72084,-6.94405 3.0002,-4.70823 9.8903,-9.07773 13.47505,-8.54548 4.92304,0.73095 8.13713,2.67161 11.37431,6.8678 6.34026,8.21856 4.0404,16.15658 -6.02873,20.80831 -4.90177,2.26451 -9.31586,2.72234 -12.02615,1.24735 z"
   id="path1174"
   inkscape:connector-curvature="0" /><path
   style="fill:#000000;fill-opacity:1;stroke:none;stroke-width:0.21324348;stroke-miterlimit:4;stroke-dasharray:none;stroke-opacity:1"
   d="m 717.01784,509.30883 c -3.89364,-2.61057 -5.94506,-6.36068 -6.63129,-12.12237 -0.43475,-3.65032 -0.30336,-4.15735 1.90429,-7.34839 1.42177,-2.0551 4.01338,-4.44452 6.47233,-5.96738 l 4.10108,-2.53985 6.20569,1.91137 c 3.41313,1.05125 6.61523,2.45668 7.11578,3.12318 0.50054,0.66649 1.38017,2.79478 1.95473,4.72953 3.38943,11.41344 -1.76455,19.36397 -13.04707,20.12643 -4.401,0.29742 -4.98612,0.15884 -8.07554,-1.91252 z"
   id="path1176"
   inkscape:connector-curvature="0" /><path
   style="fill:#000000;fill-opacity:1;stroke:none;stroke-width:0.21324348;stroke-miterlimit:4;stroke-dasharray:none;stroke-opacity:1"
   d="m 775.22675,802.28255 -5.51579,-5.54832 2.55935,-5.53937 c 2.77917,-6.01514 4.18531,-11.87185 4.9487,-20.61174 l 0.48986,-5.6083 11.30301,11.28646 c 6.21666,6.20755 11.30302,11.82296 11.30302,12.4787 0,0.98405 -17.49451,18.31961 -19.08239,18.90902 -0.26949,0.10003 -2.97209,-2.31487 -6.00576,-5.36645 z"
   id="path1178"
   inkscape:connector-curvature="0" /><path
   style="fill:#000000;fill-opacity:1;stroke:none;stroke-width:0.21324348;stroke-miterlimit:4;stroke-dasharray:none;stroke-opacity:1"
   d="m 743.37615,886.29191 c -5.23718,-4.96645 -9.61335,-9.09826 -9.72483,-9.1818 -0.41501,-0.311 126.54436,-127.93843 127.48462,-128.15543 1.55323,-0.35849 6.7036,3.56179 11.85854,9.02629 6.52061,6.91219 7.31011,8.1922 6.10452,9.89722 -0.52263,0.73913 -29.13159,29.71632 -63.57547,64.39375 l -62.62524,63.04988 z"
   id="path1180"
   inkscape:connector-curvature="0" /><path
   style="fill:#000000;fill-opacity:1;stroke:none;stroke-width:0.21324348;stroke-miterlimit:4;stroke-dasharray:none;stroke-opacity:1"
   d="m 784.95384,904.56484 c -4.63162,-3.09288 -11.64979,-10.07014 -11.64979,-11.58189 0,-0.51308 23.49375,-24.42499 52.20832,-53.13757 l 52.20832,-52.2047 1.88167,1.00704 c 2.02102,1.08162 13.82885,13.16848 13.82885,14.15565 0,0.32678 -2.15909,2.34699 -4.79797,4.48934 -19.45203,15.79192 -79.64191,76.10112 -96.87787,97.06993 l -2.51763,3.06288 z"
   id="path1182"
   inkscape:connector-curvature="0" /><path
   style="fill:#000000;fill-opacity:1;stroke:none;stroke-width:0.21324348;stroke-miterlimit:4;stroke-dasharray:none;stroke-opacity:1"
   d="m 825.45654,909.34163 c -0.34025,-0.55948 -1.85693,-1.76945 -3.3704,-2.68883 -1.51346,-0.91938 -3.67886,-3.13349 -4.81198,-4.92024 l -2.06023,-3.24865 38.21766,-38.22258 c 21.01971,-21.02241 38.65169,-38.22257 39.18218,-38.22257 1.04088,0 10.76881,9.40685 10.76881,10.41338 0,0.335 -17.39417,18.00105 -38.6537,39.2579 -29.25992,29.25623 -38.80404,38.40161 -39.27234,37.63159 z"
   id="path1184"
   inkscape:connector-curvature="0" /><path
   style="fill:#000000;fill-opacity:1;stroke:none;stroke-width:0.21324348;stroke-miterlimit:4;stroke-dasharray:none;stroke-opacity:1"
   d="m 699.73505,441.97216 c -1.98046,-0.45735 -25.36035,-5.48669 -39.45004,-8.48626 -20.76151,-4.41994 -33.4742,-6.02112 -51.17843,-6.446 -18.90258,-0.45363 -26.49599,0.30429 -51.41483,5.13191 -25.07885,4.85861 -39.16883,7.34702 -47.38799,8.36912 l -7.46352,0.92813 -3.63838,-12.82957 c -2.00111,-7.05626 -3.44051,-13.02241 -3.19865,-13.25811 0.24185,-0.2357 11.95488,-2.86037 26.02895,-5.83261 38.15507,-8.05781 52.81704,-9.31172 88.85144,-7.59874 26.86433,1.27705 51.53491,4.14423 73.2136,8.50875 11.46193,2.30761 24.38625,5.33287 24.87631,5.82293 0.58952,0.58952 -6.34881,26.18218 -7.0762,26.1012 -0.40735,-0.0453 -1.38036,-0.23019 -2.16226,-0.41075 z"
   id="path1186"
   inkscape:connector-curvature="0" /><path
   style="fill:#000000;fill-opacity:1;stroke:none;stroke-width:0.21324348;stroke-miterlimit:4;stroke-dasharray:none;stroke-opacity:1"
   d="m 716.08372,410.47036 c -13.54904,-3.61435 -19.82076,-5.72586 -22.07768,-7.43293 -1.30956,-0.99052 -1.26912,-1.04426 0.80202,-1.06572 6.77002,-0.0702 16.53055,-4.94098 22.33487,-11.14582 7.28843,-7.79136 10.97881,-17.55198 10.97881,-29.03764 0,-12.01268 -3.80865,-21.68955 -11.57909,-29.41967 -7.38274,-7.34444 -15.07563,-10.78976 -27.17251,-12.16944 -5.42814,-0.61909 -16.3084,-0.01 -19.95443,1.11738 -0.85119,0.26316 -3.54667,-2.53447 -9.75778,-10.12757 -4.71994,-5.77015 -8.34896,-10.70964 -8.06448,-10.97664 0.28448,-0.267 4.99534,-1.64187 10.46859,-3.05526 5.47325,-1.41338 12.91037,-3.57507 16.52693,-4.80376 l 6.57557,-2.23396 7.53462,1.22767 c 24.92253,4.06084 45.41089,19.00686 56.61222,41.29797 7.45234,14.83047 9.58405,33.43223 5.4952,47.9523 -1.98197,7.03825 -6.91758,16.44827 -11.61286,22.14058 -4.73131,5.73598 -11.18568,11.31948 -12.9704,11.22032 -0.73975,-0.0411 -7.10256,-1.61061 -14.1396,-3.48781 z"
   id="path1188"
   inkscape:connector-curvature="0" /><path
   style="fill:#000000;fill-opacity:1;stroke:none;stroke-width:0.21324348;stroke-miterlimit:4;stroke-dasharray:none;stroke-opacity:1"
   d="m 645.53567,396.05515 c -17.2008,-1.55062 -18.09317,-1.89097 -13.14606,-5.01395 11.41624,-7.20675 15.58513,-22.96003 10.72108,-40.51254 -3.0188,-10.89372 -10.50318,-21.69839 -17.50467,-25.27029 l -2.99402,-1.52744 v -14.96049 -14.9605 l 1.59932,0.48694 c 3.16821,0.96461 14.21902,6.72779 19.01835,9.91838 14.23927,9.46625 23.67188,23.93285 26.31901,40.36494 1.30373,8.09288 0.48993,24.37552 -1.71268,34.26753 -2.15446,9.67578 -4.86105,18.32867 -5.78748,18.50241 -0.38351,0.0719 -7.81429,-0.51083 -16.51285,-1.29499 z"
   id="path1190"
   inkscape:connector-curvature="0" /><path
   style="fill:#000000;fill-opacity:1;stroke:none;stroke-width:0.21324348;stroke-miterlimit:4;stroke-dasharray:none;stroke-opacity:1"
   d="m 588.25313,387.91057 c -0.97159,-12.04652 -1.36071,-68.10004 -0.55211,-79.53265 0.90637,-12.815 1.61233,-15.70037 4.06997,-16.63476 3.15485,-1.19948 10.57261,-1.42063 17.33559,-0.51685 l 6.75271,0.9024 0.18244,50.64533 0.18243,50.64532 H 602.4608 588.69743 Z"
   id="path1192"
   inkscape:connector-curvature="0" /><path
   style="fill:#000000;fill-opacity:1;stroke:none;stroke-width:0.21324348;stroke-miterlimit:4;stroke-dasharray:none;stroke-opacity:1"
   d="m 543.2342,396.26095 c -3.39308,-1.36775 -6.64626,-9.08716 -9.13575,-21.67809 -2.47081,-12.49647 -2.8619,-19.97877 -1.46396,-28.00873 3.31022,-19.01427 14.04259,-31.86039 39.5445,-47.33284 l 8.85053,-5.36977 0.49323,4.45968 c 0.27129,2.45283 0.59115,8.95774 0.71082,14.45536 l 0.21757,9.99568 -4.14766,2.42122 c -5.25974,3.0704 -12.54864,10.76097 -14.88996,15.71051 -5.88369,12.43805 -3.12772,28.74948 8.01998,47.467 1.95859,3.28856 3.47953,6.03398 3.37989,6.10095 -0.0996,0.067 -4.35612,0.65495 -9.45882,1.30663 -9.96559,1.27273 -19.62328,1.47898 -22.12037,0.4724 z"
   id="path1194"
   inkscape:connector-curvature="0" /><path
   style="fill:#000000;fill-opacity:1;stroke:none;stroke-width:0.21324348;stroke-miterlimit:4;stroke-dasharray:none;stroke-opacity:1"
   d="m 469.65327,410.5959 c -29.46667,-27.28094 -24.53192,-86.37318 9.00448,-107.82616 6.57608,-4.20666 33.48323,-12.10066 40.53116,-11.89099 9.65865,0.28733 21.64624,3.34464 30.4263,7.75991 l 4.83707,2.43245 -1.91727,2.28151 c -1.05449,1.25483 -2.97069,2.99875 -4.25822,3.87538 -1.28752,0.87662 -3.85238,3.59548 -5.69967,6.0419 -6.44893,8.54048 -6.00968,8.2655 -11.50437,7.20182 -11.43368,-2.21339 -22.96348,-0.68287 -33.45897,4.44151 -19.74032,9.63811 -27.49642,29.60799 -19.62334,50.52483 3.6351,9.65757 8.7115,14.63032 21.20126,20.76832 4.74332,2.33108 9.83293,4.99031 11.31025,5.9094 l 2.68602,1.67108 -19.64686,5.36772 -19.64687,5.36771 z"
   id="path1196"
   inkscape:connector-curvature="0" /><path
   style="fill:#000000;fill-opacity:1;stroke:none;stroke-width:0.21324348;stroke-miterlimit:4;stroke-dasharray:none;stroke-opacity:1"
   d="m 338.99817,468.22933 c -2.16007,-1.02208 -17.11848,-15.5337 -17.02503,-16.51652 0.0189,-0.19927 28.56691,-29.09387 63.43993,-64.21023 48.04915,-48.38444 63.69375,-63.7357 64.59569,-63.38451 1.04613,0.40734 0.94063,0.8224 -0.87159,3.42895 -3.22365,4.63664 -4.22807,9.92753 -4.22807,22.27178 0,17.17477 0.39873,16.27273 -12.32437,27.88101 -5.92736,5.408 -27.77666,27.23049 -48.554,48.49442 -20.77735,21.26394 -38.84973,39.68557 -40.16086,40.93698 -2.38197,2.27348 -2.38583,2.27435 -4.8717,1.09812 z"
   id="path1198"
   inkscape:connector-curvature="0" /><path
   style="fill:#000000;fill-opacity:1;stroke:none;stroke-width:0.21324348;stroke-miterlimit:4;stroke-dasharray:none;stroke-opacity:1"
   d="m 316.11982,423.08971 -7.5959,-7.13868 51.98624,-52.49291 c 28.59244,-28.87109 52.22032,-52.4929 52.5064,-52.4929 1.12118,0 16.25468,13.0295 16.25468,13.99481 0,0.85065 -73.99142,74.81394 -98.45197,98.41453 l -7.10355,6.85381 z"
   id="path1200"
   inkscape:connector-curvature="0" /><path
   style="fill:#000000;fill-opacity:1;stroke:none;stroke-width:0.21324348;stroke-miterlimit:4;stroke-dasharray:none;stroke-opacity:1"
   d="m 308.03713,394.63624 c -0.41335,-0.47381 -2.71807,-2.62073 -5.12159,-4.77093 l -4.37004,-3.90947 38.17433,-38.66675 C 380.1105,303.33871 375.2562,306.87135 382.719,313.81397 l 4.41545,4.10768 -38.81988,38.81508 c -21.35094,21.34829 -38.97874,38.8029 -39.17289,38.78803 -0.19415,-0.0149 -0.6912,-0.4147 -1.10455,-0.88852 z"
   id="path1204"
   inkscape:connector-curvature="0" /><path
   style="fill:#000000;fill-opacity:1;stroke:none;stroke-width:0.21324348;stroke-miterlimit:4;stroke-dasharray:none;stroke-opacity:1"
   d="m 420.7415,450.95898 c -12.92715,-9.85685 -17.02006,-15.04711 -15.64544,-19.84015 0.91049,-3.17468 2.05735,-4.84212 9.47157,-13.77085 l 6.39599,-7.7025 17.31294,17.29846 17.31294,17.29845 -11.5598,0.42339 c -8.66992,0.31754 -12.31503,0.73665 -14.58076,1.6765 -2.97153,1.23263 -3.02094,1.31 -3.02094,4.73 0,1.91229 -0.2399,3.46175 -0.53311,3.44325 -0.29321,-0.0185 -2.61224,-1.61895 -5.15339,-3.55655 z"
   id="path1206"
   inkscape:connector-curvature="0" /><path
   style="fill:#000000;fill-opacity:1;stroke:none;stroke-width:0.21324348;stroke-miterlimit:4;stroke-dasharray:none;stroke-opacity:1"
   d="m 378.93955,823.95173 -64.17834,-64.18129 1.54046,-1.38547 c 0.84725,-0.76201 4.43621,-4.82403 7.97545,-9.0267 3.53925,-4.20267 6.82478,-7.64122 7.30117,-7.64122 2.14908,0 9.96293,6.97392 16.82915,15.02016 4.12645,4.83561 21.21008,22.2163 37.96362,38.62375 16.75354,16.40745 40.32316,39.52466 52.37692,51.37159 l 21.91595,21.53986 -1.78571,3.0055 c -0.98215,1.65302 -4.93,6.12166 -8.77302,9.9303 l -6.9873,6.9248 z"
   id="path1208"
   inkscape:connector-curvature="0" /><path
   style="fill:#000000;fill-opacity:1;stroke:#000000;stroke-width:0.21324348;stroke-miterlimit:4;stroke-dasharray:none;stroke-opacity:1"
   d=""
   id="path1210"
   inkscape:connector-curvature="0" /><path
   style="fill:#000000;fill-opacity:1;stroke:none;stroke-width:0.21324348;stroke-miterlimit:4;stroke-dasharray:none;stroke-opacity:1"
   d="m 354.33521,848.39338 -52.54186,-52.54546 6.29379,-7.34041 c 3.46158,-4.03723 6.40291,-7.48165 6.53628,-7.65426 0.28157,-0.36442 13.43214,12.55094 67.45764,66.25111 l 39.17344,38.93754 -6.83151,7.3832 c -3.75733,4.06076 -6.99224,7.41257 -7.18871,7.44847 -0.19646,0.0359 -24.00105,-23.58019 -52.89907,-52.48019 z"
   id="path1212"
   inkscape:connector-curvature="0" /><path
   style="fill:#000000;fill-opacity:1;stroke:none;stroke-width:0.21324348;stroke-miterlimit:4;stroke-dasharray:none;stroke-opacity:1"
   d="m 337.7518,872.32625 c -21.20749,-21.21017 -38.55908,-38.8913 -38.55908,-39.2914 0,-0.4001 2.24281,-2.95308 4.98403,-5.67329 l 4.98404,-4.94585 38.93643,38.93161 38.93643,38.93161 -4.92811,5.30564 c -2.71047,2.9181 -5.12309,5.30564 -5.36139,5.30564 -0.23829,0 -17.78485,-17.35378 -38.99235,-38.56396 z"
   id="path1214"
   inkscape:connector-curvature="0" /><path
   style="fill:#000000;fill-opacity:1;stroke:none;stroke-width:0.21324348;stroke-miterlimit:4;stroke-dasharray:none;stroke-opacity:1"
   d="m 410.43473,798.29258 -9.95136,-9.50407 9.54659,-9.85261 c 5.25062,-5.41893 10.9131,-11.27266 12.58328,-13.00828 l 3.03669,-3.15567 0.75469,1.98499 c 0.41508,1.09175 1.71494,7.41262 2.88857,14.04637 1.17363,6.63376 2.57526,13.11775 3.11472,14.40886 l 0.98084,2.34748 -6.15998,6.13144 c -3.38799,3.37229 -6.31359,6.12561 -6.50133,6.1185 -0.18774,-0.007 -4.81946,-4.28978 -10.29271,-9.51701 z"
   id="path1216"
   inkscape:connector-curvature="0" /><path
   style="fill:#000000;fill-opacity:1;stroke:none;stroke-width:0.21324348;stroke-miterlimit:4;stroke-dasharray:none;stroke-opacity:1"
   d="m 495.08044,957.91178 c -13.65061,-3.38245 -24.92882,-6.47865 -25.06269,-6.88046 -0.13388,-0.4018 0.49889,-2.93107 1.40614,-5.6206 l 1.64954,-4.89005 6.46316,-1.30573 c 17.77268,-3.59054 39.27034,-14.89784 39.86806,-20.96972 0.18206,-1.84947 -0.31724,-2.66118 -3.19866,-5.20012 -4.69474,-4.13674 -7.07044,-5.24756 -11.34489,-5.30462 -3.29635,-0.044 -4.22342,0.33157 -9.20218,3.72796 l -5.53655,3.77688 -2.70391,-1.21929 c -1.98573,-0.89544 -2.70391,-1.65033 -2.70391,-2.8421 0,-4.57856 3.45208,-8.86894 9.24055,-11.4845 3.48698,-1.57562 4.52641,-1.72016 9.61843,-1.33756 16.57621,1.24552 25.38747,8.59889 25.12724,20.96974 -0.15138,7.1961 -0.52707,7.93098 -5.96385,11.66572 -9.27156,6.36901 -18.83668,10.94122 -27.72916,13.25479 -4.88458,1.27082 -5.75996,1.8717 -4.77287,3.27614 0.28686,0.40814 7.37071,2.07547 15.74189,3.70519 8.37118,1.62971 15.52298,3.26576 15.89288,3.63566 0.93688,0.93688 -0.10892,9.351 -1.15122,9.26227 -0.45029,-0.0383 -11.9874,-2.83715 -25.638,-6.2196 z"
   id="path1218"
   inkscape:connector-curvature="0" /><path
   style="fill:#000000;fill-opacity:1;stroke:none;stroke-width:0.21324348;stroke-miterlimit:4;stroke-dasharray:none;stroke-opacity:1"
   d="m 559.70517,971.71134 c -3.885,-1.41655 -9.13863,-7.23454 -10.77566,-11.93319 -1.93108,-5.54264 -1.76703,-18.23057 0.33143,-25.63407 2.2164,-7.8196 6.73716,-16.40286 11.03995,-20.96079 l 3.66915,-3.88672 5.46998,0.37154 c 8.77296,0.59588 15.62381,4.47842 20.55878,11.65115 6.61332,9.61214 7.33268,25.74948 1.65236,37.06721 -4.93821,9.83912 -11.17699,13.78766 -22.35003,14.14538 -4.62664,0.14813 -7.6479,-0.1102 -9.59596,-0.82051 z m 17.41488,-11.69439 c 2.68071,-1.62581 3.39637,-2.55055 4.41967,-5.71082 4.06707,-12.56041 2.71567,-26.1222 -3.31749,-33.2922 -1.80455,-2.14459 -2.24688,-2.3048 -6.36346,-2.3048 -4.77279,0 -5.78299,0.65294 -9.58023,6.19211 -4.56188,6.65459 -6.06244,19.79372 -3.33008,29.15865 1.44349,4.94745 1.86682,5.45002 5.80709,6.894 4.40399,1.61392 8.69464,1.28879 12.3645,-0.93694 z"
   id="path1220"
   inkscape:connector-curvature="0" /><path
   style="fill:#000000;fill-opacity:1;stroke:none;stroke-width:0.21324348;stroke-miterlimit:4;stroke-dasharray:none;stroke-opacity:1"
   d="m 610.5282,966.67773 v -4.63147 l 7.28582,-4.71264 c 17.71472,-11.45829 26.82473,-20.32869 29.6187,-28.83967 1.0586,-3.2247 0.70439,-4.48012 -2.10892,-7.47468 -2.03152,-2.16239 -2.47487,-2.30969 -6.93227,-2.30319 -7.1334,0.0104 -11.13529,2.12001 -15.42483,8.13127 -3.15821,4.42583 -3.53464,4.71766 -5.82543,4.51628 -3.66781,-0.32243 -5.01087,-2.89084 -3.79064,-7.24907 1.26718,-4.52592 5.29729,-8.8028 11.36332,-12.05909 l 5.11207,-2.74421 7.23286,0.28263 c 11.97103,0.46777 17.68335,4.18255 20.78329,13.5156 2.13828,6.43775 0.22274,12.60969 -5.97515,19.25215 -1.82072,1.95132 -7.70375,6.88658 -13.07341,10.96726 -5.36965,4.08067 -9.94661,7.71648 -10.17101,8.07957 -0.57016,0.92254 1.61823,0.83182 17.80158,-0.73796 11.58334,-1.12358 14.38687,-1.20976 15.13756,-0.46533 1.03172,1.02311 3.1226,8.25574 2.39069,8.26972 -0.25782,0.005 -11.50412,0.64294 -24.99177,1.41781 -13.48765,0.77486 -25.40263,1.41056 -26.47773,1.41266 -1.93282,0.004 -1.95473,-0.0481 -1.95473,-4.62764 z"
   id="path1222"
   inkscape:connector-curvature="0" /><path
   style="fill:#000000;fill-opacity:1;stroke:none;stroke-width:0.21324348;stroke-miterlimit:4;stroke-dasharray:none;stroke-opacity:1"
   d="m 698.45469,961.08941 c -6.91546,-1.92895 -13.58259,-9.03969 -16.41001,-17.50187 -1.94977,-5.83545 -2.34033,-17.13347 -0.80839,-23.3847 2.04592,-8.34857 7.84017,-16.57065 14.41874,-20.4603 2.90299,-1.71643 3.22585,-1.75595 7.81536,-0.95673 15.74599,2.74205 26.54412,17.91873 25.55445,35.91659 -0.41594,7.5643 -1.11194,10.08193 -4.22071,15.26756 -5.24694,8.7522 -17.02189,13.72123 -26.34944,11.11945 z m 12.00475,-10.77667 c 2.57463,-0.51534 5.38811,-3.28798 7.12802,-7.02455 3.37487,-7.24775 1.65114,-17.98345 -4.33558,-27.00283 -3.27228,-4.9299 -6.16353,-7.22578 -10.25818,-8.14578 -2.82046,-0.63372 -3.45879,-0.50205 -6.85299,1.41352 -3.41613,1.92794 -3.8259,2.43525 -4.69452,5.81188 -1.52822,5.94077 -1.12483,16.39094 0.82877,21.46985 1.97046,5.12276 4.3721,9.14007 7.33337,12.2668 2.05422,2.16901 2.41977,2.28992 5.78009,1.91178 1.97295,-0.22202 4.25491,-0.53732 5.07102,-0.70067 z"
   id="path1224"
   inkscape:connector-curvature="0" /><path
   style="fill:#000000;fill-opacity:1;stroke:none;stroke-width:0.21324348;stroke-miterlimit:4;stroke-dasharray:none;stroke-opacity:1"
   d="m 593.35001,642.00272 c -4.02627,-2.27653 -4.02905,-2.28047 -5.87319,-8.32427 -1.01475,-3.32567 -1.84096,-6.54381 -1.83602,-7.15142 0.0149,-1.82724 3.82436,-7.2241 7.43307,-10.53032 l 3.38943,-3.10534 5.03968,0.4966 c 7.71086,0.75981 10.9379,2.77854 13.91808,8.70671 2.31876,4.61247 2.03068,9.52843 -0.86597,14.77766 -2.23602,4.05206 -2.58142,4.34341 -6.92193,5.83903 -6.3629,2.19246 -9.42053,2.04076 -14.28315,-0.70865 z m 15.23678,-6.03161 6.91707,-6.94312 -7.34348,-7.31849 -7.34349,-7.3185 -6.56884,7.12457 c -4.65193,5.04549 -6.39824,7.41442 -5.98422,8.1178 1.11667,1.89716 11.96178,13.23491 12.68175,13.25782 0.39828,0.0127 3.83683,-3.10136 7.64121,-6.92008 z"
   id="path1226"
   inkscape:connector-curvature="0" /></svg>